<svg width="366" height="887" viewBox="0 0 366 887" fill="none" xmlns="http://www.w3.org/2000/svg">
<path d="M262.051 111.291C263.074 109.011 260.999 106.28 258.548 105.789C256.101 105.301 253.82 108.845 251.516 107.761C250.409 106.871 251.477 105.065 251.144 103.684C250.805 102.275 249.054 101.686 247.616 101.866C246.177 102.047 244.833 102.734 243.391 102.864C238.898 103.272 235.855 98.5328 233.93 94.4557C233.263 93.0435 232.583 91.5313 232.791 89.9837C233.175 87.1066 236.264 85.5639 238.876 84.2986C245.843 80.9211 252.382 75.7292 255.123 68.4861C255.652 67.0935 255.975 65.3639 255 64.2366C253.803 62.8535 251.559 63.3378 249.91 64.1268C249.769 64.1949 249.627 64.265 249.489 64.3341C247.001 65.587 244.027 65.5323 241.738 63.9464C240.959 63.4068 240.045 63.0736 239.092 63.0505C236.938 62.9931 234.893 64.5216 234.16 66.5234C234.012 66.9324 233.481 66.9752 233.287 66.5834L233.25 66.5076C231.717 63.4187 227.077 63.9157 226.341 67.2869C225.909 69.275 225.873 71.3464 226.282 73.3399C226.525 74.5373 226.936 75.7324 227.723 76.6698C230.418 79.8739 235.35 79.8069 239.501 80.3493C246.567 81.275 253.784 81.0277 260.775 79.6409C263.169 79.1668 264.605 82.147 262.769 83.756C262.425 84.0572 262.075 84.3476 261.715 84.6311C260.371 85.6944 261.372 87.8661 263.025 87.4112C264.888 86.8967 266.717 86.2662 268.502 85.5217C270.804 84.5629 273.161 86.7792 272.292 89.1176C271.524 91.1847 270.641 93.2106 269.657 95.1826C269.164 96.17 269.974 97.2789 271.13 97.1649C272.555 97.034 273.825 98.0759 273.941 99.5033C274.077 101.23 276.366 101.711 277.213 100.201C277.942 98.903 278.592 97.5625 279.168 96.189C279.681 94.9559 281.494 95.4293 281.338 96.757C280.644 102.731 278.943 108.588 276.292 113.987C275.624 115.348 274.831 116.657 273.862 117.822C266.606 126.552 256.515 122.004 248.837 117.135C239.312 111.098 230.229 104.365 221.681 97.0073C219.868 95.4457 217.392 97.7801 218.806 99.7129C219.863 101.16 221.061 102.502 222.376 103.72C224.115 105.327 222.565 108.188 220.241 107.748C210.885 105.971 202.198 100.403 196.13 92.9474C190.398 85.9059 186.808 77.3799 184.886 68.4657C184.344 65.9538 187.679 64.5368 189.094 66.6842C190.258 68.45 193.005 67.527 192.859 65.4166C192.807 64.6961 192.771 63.9738 192.75 63.2516C192.664 60.5845 196.232 59.6245 197.463 61.9924L197.541 62.138C198.767 64.4991 202.159 64.5658 203.409 62.2164C204.286 60.5735 205.243 58.9745 206.277 57.4272C207.244 55.9762 209.442 56.9647 208.992 58.6461C207.061 65.8296 202.963 79.7507 207.221 80.7613C212.293 81.5361 214.905 59.8053 218.256 43.8551C219 40.3086 222.961 38.5727 226.146 40.3006C231.63 43.2804 238.62 43.8596 244.928 42.8315C253.814 41.382 262.069 37.3795 270.787 35.1282C298.667 27.9189 330.649 40.8472 345.291 65.7757C346.852 68.4309 347.834 71.437 347.784 74.5171C347.658 82.3375 341.735 84.638 336.229 85.9708C323.417 89.0684 297.55 91.3537 297.101 85.4828C300.175 78.8728 332.366 88.0623 347.618 96.6374C352.253 99.2436 356.755 102.365 359.801 106.723C363.156 111.519 364.488 117.455 364.967 123.287C366.551 142.588 359.088 162.443 345.18 175.918C331.271 189.395 311.192 196.23 291.949 194.04C288.82 193.682 285.557 193.115 282.595 194.189C279.823 195.195 277.756 197.485 275.694 199.593C270.477 204.938 264.571 209.612 258.18 213.482C255.105 215.344 251.995 211.194 254.547 208.662C267.279 196.057 284.866 188.186 301.316 180.241C322.145 170.184 344.057 157.085 351.682 135.25C352.973 131.553 353.453 126.678 350.242 124.432C341.929 122.469 334.775 148.328 324.635 158.287C314.631 168.109 300.326 171.746 287.137 176.501C270.211 182.599 254.156 191.12 239.615 201.715C232.022 207.249 224.077 213.63 214.685 213.786C209.098 213.879 203.737 211.7 198.688 209.301C182.233 201.483 166.008 189.409 161.4 171.783C156.132 151.631 167.513 130.465 164.813 109.812C163.385 98.8922 158.053 88.5065 157.084 77.6887C156.829 74.8515 160.215 73.052 162.358 74.9303C165.867 78.0004 168.309 82.8302 171.259 86.6745C174.936 91.4674 179.925 95.0692 184.927 98.4567C217.342 120.41 253.716 136.492 291.757 145.736C295.819 146.722 296.321 152.27 292.504 153.984C273.57 162.499 249.723 160.07 233.484 146.921C224.644 139.766 217.876 129.853 207.699 124.772C201.15 121.502 193.73 120.528 186.749 118.327C178.814 115.825 171.405 111.684 165.098 106.26C163.196 104.626 160.222 105.516 159.677 107.963C155.888 125.013 154.297 142.552 154.965 160.005C155.104 163.672 155.263 167.656 152.635 170.474C151.089 172.133 148.589 172.794 146.602 171.707C144.658 170.644 144.432 168.646 144.287 166.787C142.879 148.906 142.626 111.67 148.559 113.371C155.177 115.378 146.32 121.314 142.819 123.623C141.241 124.665 139.251 125.083 137.442 124.535C134.229 123.568 133.581 120.726 133.232 118.088C131.237 103.056 135.377 87.8396 134.604 72.6952C134.036 61.561 130.823 50.6937 130.159 39.5645C129.582 29.8927 130.939 20.2126 132.078 10.6076C132.3 8.7526 132.973 6.9343 134.242 5.56172C138.962 0.461671 145.394 5.17977 148.724 9.97703C150.615 12.7001 152.615 15.822 155.173 17.7622C157.424 19.4721 158.377 22.377 157.287 24.9856C151.123 39.7336 153.988 57.8941 163.793 70.4924C165.577 72.7825 169.256 70.8431 168.378 68.0751C165.163 57.9326 165.354 46.6903 169.219 36.7645C170.19 34.2743 171.422 31.8022 173.409 30.0145C176.877 26.8945 181.908 26.418 186.191 24.5667C193.205 21.5355 197.903 14.9797 203.242 9.51252C208.579 4.0473 216.037 -0.786752 223.425 1.16277C233.529 3.82959 236.662 16.8168 244.959 23.1744C246.02 23.9861 247.844 24.2391 248.877 23.7791C250.624 23.0009 252.477 22.4491 254.362 22.7673C261.128 23.9134 267.469 27.32 270.629 33.3616C274.526 40.8092 275.779 49.3013 277.422 57.5437C277.701 58.9364 278.01 60.3696 278.833 61.5296C280.962 64.5255 285.367 64.4199 289.019 64.0023C292.287 63.629 295.554 63.2556 298.822 62.8822C301.691 62.5559 305.69 62.9606 305.154 66.6854C304.886 68.5635 303.164 69.8151 301.272 69.9404C295.191 70.3439 289.421 74.7068 287.756 80.5745C286.341 85.5562 288.212 91.4293 292.52 94.3036C297.65 97.7295 304.418 96.4748 310.571 96.9075C313.779 97.134 317.291 98.4313 319.739 100.473C322.103 102.45 320.556 106.17 317.475 106.155C312.589 106.129 307.339 109.425 303.835 113.282C301.259 116.119 298.92 119.363 296.27 122.139C293.976 124.537 290.094 121.613 291.815 118.773C298.618 107.555 312.732 100.643 325.698 103.512C327.456 103.9 329.271 104.498 330.471 105.839C332.085 107.641 332.192 110.333 331.815 112.722C330.635 120.174 325.179 126.696 318.242 129.553C315.878 130.527 314.526 132.974 315.112 135.46C315.759 138.203 315.426 140.885 312.587 142.295C310.34 143.41 307.678 143.072 305.46 141.897C297.682 137.778 289.08 142.213 283.673 148.305C279.021 153.546 275.972 160.006 271.709 165.569C258.54 182.771 235.647 189.463 220.052 204.502C212.404 211.874 206.734 221.047 199.512 228.837C189.32 239.833 176.293 247.809 165.515 258.229C162.491 261.153 159.653 264.267 157.017 267.543C155.764 269.101 153.362 267.496 154.356 265.763C156.917 261.297 159.489 256.829 161.7 252.211C168.902 237.17 172.236 220.303 171.357 203.652C171.209 200.837 168.02 199.228 165.659 200.767C152.877 209.085 141.753 219.918 128.725 227.913C117.094 235.053 102.682 239.713 89.6391 237.335C86.9727 236.847 86.8425 233.057 89.5013 232.522C100.977 230.216 111.9 225.127 120.992 217.752C128.969 211.279 135.483 203.183 143.215 196.42C150.949 189.655 160.508 184.086 170.781 184.305C186.255 184.633 198.219 197.502 207.729 209.715C229.944 238.245 250.265 269.354 278.484 291.576C280.207 292.934 282.52 290.841 281.315 289.008C269.135 270.475 257.724 251.088 253.335 229.664C252.81 227.101 250.474 225.363 247.868 225.603C243.836 225.975 239.267 223.844 235.788 221.316C230.926 217.781 225.777 213.314 219.807 214.025C214.133 214.699 210.039 219.886 206.625 224.186C191.904 242.725 180.167 263.442 171.917 285.633C158.535 321.617 144.742 355.853 132.729 392.033C131.773 394.913 134.888 397.392 137.494 395.836C142.201 393.018 147.5 391.052 152.795 389.522C177.631 382.341 204.765 383.365 228.99 392.391C247.594 399.324 264.824 411.297 275.157 428.249C283.553 442.021 286.805 459.287 282.883 474.755C281.905 478.63 276.74 479.301 274.725 475.851C263.655 456.918 241.752 444.925 227.449 427.46C215.848 413.296 207.26 393.857 189.498 389.415C178.167 386.583 166.114 390.992 155.222 393.498C145.785 395.672 137.679 401.652 133.152 410.213C121.357 432.537 109.518 455.678 101.49 479.738C88.8604 517.586 62.007 603.398 45.0223 668.931C26.6415 739.854 2.82323 809.809 -20.1896 880.017C-21.6905 884.599 -26.6048 887.11 -31.1971 885.641C-35.7204 884.195 -38.2153 879.425 -36.9518 874.845C-35.8647 870.913 -35.1041 866.849 -33.7102 862.99C-12.7187 804.868 3.34406 762.773 20.0089 706.828C24.376 692.166 44.023 624.358 48.1818 609.665C53.402 591.225 72.3698 541.476 77.3357 519.517C82.6588 496.001 72.8656 470.604 62.423 448.876C51.5725 426.301 31.857 409.506 15.9832 390.131C-10.2095 358.163 -27.2983 317.532 -61.3169 294.061C-83.8034 278.548 -111.822 272.281 -139.127 273.104C-162.913 273.82 -186.263 279.629 -208.654 287.82C-211.133 288.728 -210.943 292.283 -208.394 292.961C-200.119 295.163 -192.294 299.675 -184.618 303.723C-140.187 327.157 -89.151 337.896 -39.042 334.353C-34.9232 334.062 -30.6893 333.642 -27.0141 331.752C-19.3919 327.832 -16.1571 318.833 -10.6549 312.259C-0.956007 300.663 15.2384 297.217 30.2488 295.438C43.3644 293.884 57.2049 292.832 68.6981 286.736C71.1687 285.426 74.1919 286.581 75.2744 289.161C78.4537 296.75 84.3664 303.198 91.7345 306.882C97.0098 309.521 103.31 311.078 106.681 315.915C109.395 319.811 109.5 324.942 108.924 329.655C106.622 348.385 94.5024 365.631 77.6596 374.142C60.815 382.652 39.7448 382.18 23.3003 372.92C16.3225 368.993 9.01949 363.376 1.22589 365.205C-1.83046 365.921 -4.50099 367.742 -7.01633 369.62C-27.968 385.272 -43.6699 407.556 -52.5126 432.168C-58.1605 447.889 -61.093 464.976 -57.9524 481.383C-52.0804 512.07 -26.9627 534.331 -8.94946 560.154C-6.49023 563.678 -1.151 563.407 0.87283 559.615C15.2804 532.6 43.8923 513.237 53.5192 483.886C63.4096 453.732 50.898 421.479 45.3155 390.241C52.8701 424.734 65.2167 453.437 78.8122 485.242C80.2542 488.614 85.0846 488.49 86.3322 485.042L162.012 275.902C174.152 237.717 200.094 205.774 226.558 175.449C228.718 172.977 227.109 169.138 223.838 168.899C217.451 168.43 211.133 165.904 205.869 162.164C198.058 156.611 192.284 148.642 187.489 140.346C183.867 134.077 180.403 127.201 174.152 123.55C172.422 125.4 171.538 128.014 171.787 130.534" stroke="url(#paint0_linear_2_511)" stroke-width="1.33333" stroke-miterlimit="10"/>
<defs>
<linearGradient id="paint0_linear_2_511" x1="233.482" y1="-2.63294" x2="-182.093" y2="808.461" gradientUnits="userSpaceOnUse">
<stop stop-color="#F0A56D"/>
<stop offset="1" stop-color="#FFD1AF" stop-opacity="0"/>
</linearGradient>
</defs>
</svg>
