<svg width="284" height="885" viewBox="0 0 284 885" fill="none" xmlns="http://www.w3.org/2000/svg">
<path d="M74.0673 877.15C59.5516 844.936 44.3949 812.964 31.8961 779.89C28.7869 771.665 25.8455 763.373 23.1415 755.003C21.8056 750.868 20.5279 746.715 19.3173 742.541C18.8703 741 18.665 739.32 17.6162 738.092C16.3864 736.651 16.2698 734.507 15.8262 732.69C11.689 715.704 7.48297 698.283 9.95125 680.702C11.0671 672.752 14.3234 665.404 15.975 657.587C16.8377 653.505 16.9229 649.332 17.2265 645.184C17.5596 640.636 17.8066 636.083 18.0231 631.529C18.4554 622.425 18.7615 613.315 19.3843 604.221C19.6895 599.755 20.0922 595.427 21.2159 591.081C22.2691 587.007 23.6042 582.987 24.2278 578.815C24.8818 574.441 24.3756 569.79 24.6296 565.363C24.8827 560.946 25.615 556.637 26.3942 552.287C27.8589 544.113 29.5339 535.97 31.7326 527.958C32.8241 523.979 34.0443 520.035 35.4141 516.142C36.1108 514.163 36.8449 512.197 37.6198 510.246C38.3408 508.43 39.1522 507.111 41.2413 506.804C43.9809 506.403 47.5816 507.165 49.7202 508.97C52.272 511.123 54.2236 514.731 55.9127 517.572C60.2413 524.852 61.9998 532.383 62.5826 540.767C63.2018 549.696 62.8774 558.661 61.9355 567.556C61.458 572.065 60.8257 576.557 60.0925 581.031C59.3976 585.272 58.7801 589.464 59.2333 593.77C59.6368 597.611 60.6074 601.598 61.6146 605.329C62.5356 608.745 63.8028 612.081 65.584 615.146C68.728 620.56 73.3689 625.386 79.9684 625.697C84.5126 625.912 89.5397 624.316 93.0585 621.442C95.4903 619.455 96.8888 617.029 98.2003 614.239C99.8041 610.824 102.018 607.747 104.476 604.896C109.142 599.489 114.617 594.831 119.125 589.28C121.548 586.298 123.48 582.957 125.985 580.016C128.421 577.156 131.125 574.5 134.156 572.265C135.775 571.071 137.488 569.995 139.293 569.101C140.688 568.408 141.382 567.376 142.299 566.102C144.527 563.006 146.357 559.627 147.721 556.066C150.542 548.705 150.822 541.39 149.928 533.65C149.449 529.499 148.91 525.335 147.883 521.277C146.888 517.342 145.139 514.113 142.833 510.789C140.752 507.789 138.372 504.967 135.574 502.607C132.698 500.183 129.355 498.341 126.327 496.111C120.492 491.812 115.117 486.805 110.975 480.832C108.638 477.462 107.174 474.193 106.542 470.108C106.024 466.761 105.458 461.885 108.483 459.523C110.924 457.616 114.847 458.733 117.534 459.602C121.083 460.75 124.195 462.776 127.024 465.169C129.761 467.483 132.222 470.094 134.705 472.669C137.429 475.492 140.299 477.643 143.749 479.529C147.13 481.378 150.885 483.039 153.73 485.701C156.35 488.153 158.106 491.505 159.946 494.537C161.765 497.531 163.721 500.863 166.706 502.841C167.922 503.648 169.279 504.213 170.613 504.789C172.922 505.787 174.684 507.119 176.675 508.627C179.776 510.975 183.3 512.815 186.071 515.548C188.719 518.16 191.057 521.162 192.619 524.551C196.076 532.053 194.229 540.447 191.555 547.891C188.595 556.128 185.918 564.381 183.324 572.744C180.648 581.366 177.133 589.676 174.197 598.215C171.289 606.668 168.586 615.192 165.533 623.594C164.151 627.395 162.968 631.738 160.88 635.21C158.901 638.501 155.914 641.242 152.376 642.749C153.163 642.571 153.948 642.393 154.735 642.215C152.342 630.796 160.402 620.066 166.285 611.013C172.704 601.134 181.172 592.747 187.437 582.761C193.866 572.518 197.922 560.497 201.36 548.981C203.089 543.187 204.628 537.338 206.14 531.485C206.89 528.583 207.995 525.535 208.34 522.558C208.694 519.519 208.011 516.442 207.06 513.569C205.187 507.914 201.611 502.808 198.118 498.031C194.469 493.044 190.501 488.302 186.7 483.432C183.041 478.744 180.334 473.487 177.421 468.329C176.003 465.819 174.525 463.335 172.832 460.997C171.108 458.613 169.051 456.523 167.607 453.939C166.196 451.412 165.209 448.68 164.279 445.949C163.347 443.21 161.964 440.623 160.864 437.939C158.677 432.607 156.754 427.141 153.952 422.086C151.447 417.568 148.51 413.726 142.955 413.415C139.62 413.229 136.359 414.426 134 416.8C130.464 420.358 129.028 425.911 129.622 430.807C130.418 437.381 132.652 444.005 134.99 450.17C137.422 456.59 140.297 462.912 143.459 469.006C146.193 474.274 151.441 477.626 154.484 482.693C154.638 482.953 156.854 482.313 156.995 482.046C158.301 479.546 157.765 476.89 156.995 474.303C156.116 471.353 155.221 468.409 154.122 465.533C151.836 459.557 149.133 453.739 145.979 448.17C142.828 442.602 139.227 437.29 135.207 432.31C133.576 430.288 131.894 428.491 129.972 426.764C128.536 425.473 127.366 425.392 125.568 425.832C121.881 426.736 117.453 428.412 116.06 432.311C114.409 436.93 114.159 442.878 114.819 447.69C115.127 449.935 115.717 452.151 116.695 454.2C117.231 455.319 117.877 456.384 118.635 457.365C119.551 458.552 120.888 459.462 121.615 460.73C123.093 463.307 123.04 466.847 123.363 469.706C123.781 473.394 124.127 477.088 124.488 480.781C125.145 487.503 125.844 494.231 127.107 500.871C128.471 508.044 131.293 514.773 132.752 521.892C134.161 528.773 134.413 535.863 134.895 542.851C135.408 550.296 134.302 557.664 133.711 565.069C133.18 571.728 133.656 578.541 135.648 584.962C137.872 592.127 140.142 599.265 142.03 606.529C143.831 613.46 145.353 620.47 146.377 627.558C146.884 631.071 147.27 634.6 147.504 638.142C147.622 639.908 147.702 641.675 147.74 643.443C147.781 645.313 148.174 647.817 147.702 649.631C147.225 651.47 145.688 653.47 144.804 655.159C143.976 656.74 143.148 658.32 142.323 659.903C140.395 663.6 138.478 667.303 136.584 671.017C132.767 678.498 129.04 686.024 125.493 693.636C118.853 707.882 114.679 723.862 114.139 739.593C114.14 739.563 116.635 739.382 116.651 738.944C117.114 725.423 120.456 712.187 125.172 699.552C127.676 692.846 131.087 686.397 134.261 679.983C137.304 673.83 140.433 667.722 143.598 661.63C145.245 658.463 146.9 655.302 148.556 652.141C149.27 650.779 150.035 649.6 150.241 648.099C150.512 646.113 150.286 643.911 150.228 641.911C150.029 635.107 149.229 628.331 148.035 621.632C146.774 614.563 145.068 607.579 143.132 600.667C141.3 594.132 138.696 587.676 137.276 581.048C136.621 577.988 136.099 574.65 135.899 571.53C135.675 568.02 136.207 564.354 136.543 560.866C137.2 554.033 137.784 547.321 137.269 540.456C136.743 533.444 136.511 526.371 134.878 519.498C133.334 512.998 130.873 506.822 129.618 500.222C128.356 493.583 127.657 486.854 126.999 480.133C126.694 477.013 126.401 473.891 126.064 470.775C125.731 467.692 125.677 464.366 124.653 461.416C123.781 458.903 121.475 457.45 120.088 455.179C118.796 453.068 117.98 450.699 117.528 448.274C116.649 443.554 117.078 438.649 118.042 433.977C118.687 430.855 120.092 428.538 123.025 427.069C124.891 426.134 125.897 426.006 127.46 427.411C128.365 428.225 129.31 429.045 130.146 429.906C134.811 434.709 138.681 440.732 142.098 446.46C145.573 452.284 148.543 458.404 151.037 464.707C152.2 467.644 153.098 470.618 154.061 473.618C155.012 476.582 156.019 479.755 154.484 482.693C155.319 482.477 156.157 482.261 156.995 482.046C154.402 477.726 150.279 474.712 147.368 470.649C145.835 468.51 144.796 465.979 143.655 463.619C142.326 460.869 141.042 458.096 139.837 455.289C137.541 449.942 135.533 444.465 134.025 438.841C132.68 433.818 131.301 428.642 132.584 423.468C133.149 421.186 134.139 418.965 135.64 417.138C136.269 416.372 136.984 415.672 137.782 415.085C139.156 414.073 140.189 413.976 141.869 414.262C147.546 415.223 150.175 420.109 152.542 424.825C155.014 429.754 156.815 434.974 158.958 440.046C159.993 442.493 161.154 444.837 162.024 447.347C162.967 450.07 164.001 452.788 165.488 455.268C166.868 457.569 168.757 459.477 170.321 461.646C172.009 463.986 173.491 466.465 174.909 468.977C177.67 473.87 180.221 478.913 183.651 483.39C187.251 488.09 191.077 492.616 194.627 497.358C198.013 501.883 201.571 506.73 203.735 511.981C204.763 514.475 205.568 517.154 205.828 519.845C206.132 523.015 205.241 525.877 204.459 528.91C203.016 534.513 201.576 540.119 199.995 545.686C196.83 556.832 193.053 567.83 187.791 578.179C181.996 589.577 172.839 598.613 165.56 609.017C161.962 614.159 158.478 619.671 155.579 625.241C152.721 630.736 150.925 636.666 152.223 642.863C152.275 643.107 154.385 642.412 154.581 642.33C157.725 640.99 160.299 638.826 162.335 636.092C164.719 632.888 165.885 628.776 167.266 625.061C170.435 616.535 173.197 607.867 176.128 599.258C179.088 590.572 182.7 582.116 185.439 573.363C188.103 564.854 190.695 556.391 193.779 548.027C196.605 540.366 198.711 531.676 195.131 523.904C193.569 520.514 191.23 517.511 188.583 514.9C185.812 512.166 182.287 510.329 179.186 507.979C177.737 506.88 176.395 505.597 174.733 504.84C172.774 503.946 170.701 503.236 168.927 501.991C165.902 499.866 163.949 496.36 162.08 493.262C160.226 490.19 158.395 486.86 155.605 484.526C152.51 481.937 148.736 480.29 145.248 478.32C138.609 474.571 134.347 468.299 128.44 463.622C123.947 460.065 118.083 457.236 112.197 457.954C110.329 458.181 108.28 458.655 106.663 459.654C103.663 461.505 103.569 465.016 103.754 468.217C103.994 472.356 105.082 476.229 107.297 479.723C109.253 482.807 111.544 485.67 114.072 488.305C116.699 491.048 119.576 493.543 122.596 495.846C125.622 498.153 128.942 500.048 131.953 502.361C137.718 506.789 143.095 513.716 145.057 520.743C146.216 524.896 146.814 529.182 147.319 533.455C147.775 537.31 148.216 541.118 147.899 545.004C147.266 552.803 144.371 560.382 139.799 566.723C137.501 569.908 133.6 571.283 130.543 573.714C127.581 576.068 124.941 578.816 122.56 581.751C120.072 584.821 118.077 588.25 115.5 591.244C113.117 594.014 110.522 596.59 107.949 599.183C102.962 604.21 98.1838 609.354 95.2433 615.872C92.094 622.854 84.5283 627.091 77.1443 623.756C70.7875 620.885 66.8903 613.399 64.8387 607.093C62.273 599.203 60.8657 590.886 62.2234 582.652C63.6932 573.741 64.9065 564.8 65.2831 555.768C65.6527 546.892 65.8266 537.176 63.474 528.541C62.459 524.819 60.9031 521.264 58.9993 517.911C57.2451 514.822 55.2282 511.345 52.7347 508.783C49.4732 505.434 43.6574 505.572 39.5201 506.883C37.1701 507.628 36.0195 508.6 35.108 510.895C33.519 514.897 32.0979 518.965 30.829 523.08C28.3555 531.104 26.4734 539.295 24.8844 547.535C23.1728 556.414 21.9543 565.073 21.8943 574.132C21.8647 578.659 21.1768 582.71 19.9766 587.076C18.7711 591.463 17.5813 595.768 17.2117 600.317C16.4611 609.557 16.1098 618.821 15.6984 628.08C15.4896 632.785 15.2653 637.49 14.9643 642.19C14.6895 646.486 14.5991 650.884 14.0094 655.146C12.9048 663.138 9.39551 670.546 7.90655 678.456C6.26102 687.193 6.41756 696.204 7.51951 704.996C8.62927 713.847 10.6896 722.543 12.7944 731.201C13.2901 733.239 13.525 735.687 14.3512 737.611C14.5878 738.162 14.9417 738.455 15.2862 738.928C15.8889 739.754 16.0402 740.519 16.3281 741.528C17.5187 745.702 18.7781 749.855 20.0966 753.989C31.0481 788.32 45.8735 821.272 60.771 854.033C64.3707 861.959 67.9818 869.867 71.5555 877.801C71.6973 878.113 74.0986 877.22 74.0673 877.15Z" fill="url(#paint0_linear_2_501)"/>
<path d="M69.6335 623.329C70.1048 618.681 71.0711 614.143 72.6853 609.752C74.0368 606.074 76.4277 602.777 77.3435 598.989C79.5274 589.945 83.0498 581.331 87.0357 572.95C90.8921 564.839 94.9641 556.81 98.1769 548.415C99.6624 544.534 100.963 540.579 101.974 536.547C102.499 534.448 102.795 532.301 103.3 530.203C103.651 528.743 104.72 527.764 104.885 526.263C105.381 521.765 105.114 516.992 105.247 512.46C105.383 507.809 105.449 503.15 105.169 498.502C104.906 494.095 104.329 489.694 103.252 485.406C102.014 480.483 99.7337 475.997 97.5298 471.447C93.3003 462.715 88.7821 454.126 84.7031 445.322C80.6937 436.667 75.4658 428.811 70.3649 420.768C65.484 413.074 57.3825 407.545 54.1863 398.787C50.7509 389.377 54.1837 379.951 57.3086 370.992C60.2265 362.625 63.6489 354.435 67.6661 346.533C69.6761 342.578 71.8312 338.697 74.1177 334.895C76.3495 331.183 79.737 327.516 80.2319 323.1C80.6398 319.473 80.3745 314.124 84.7457 312.774C90.7973 310.906 94.5684 316.909 96.5809 321.711C99.6971 329.144 99.5545 337.591 97.7925 345.338C96.7479 349.93 94.5023 354.03 92.9333 358.434C91.4861 362.497 90.7442 366.894 89.6806 371.07C87.4271 379.915 83.8377 387.908 80.0127 396.151C76.8443 402.978 73.0636 409.593 67.0773 414.353C66.045 415.175 64.7656 416.282 63.4358 416.593C62.9626 416.703 62.42 416.545 61.9416 416.705C59.7995 417.416 57.8722 419.133 55.6987 419.955C51.5545 421.519 47.1311 421.911 42.7346 421.659C37.7894 421.375 34.4409 417.922 30.9455 414.832C27.4179 411.714 24.7053 407.622 22.3857 403.553C17.9371 395.748 14.8887 386.818 13.211 378.009C11.382 368.406 11.3976 358.176 12.3335 348.467C13.2771 338.69 19.6513 330.813 24.0912 322.404C28.145 314.725 31.6491 306.74 36.2309 299.346C37.3206 297.589 38.4695 295.868 39.6941 294.201C40.9917 292.437 42.7138 290.869 43.4583 288.818C44.8881 284.882 47.4016 281.488 50.056 278.293C55.5526 271.676 60.8692 265.093 67.2104 259.252C73.7968 253.186 79.704 247.027 83.9743 239.079C85.7894 235.702 87.6132 231.959 88.8143 228.312C90.0154 224.662 89.2352 221.697 87.0435 218.663C84.0256 214.484 78.8447 208.667 72.9932 210.544C69.7204 211.594 67.0852 214.441 64.9004 216.95C62.0947 220.173 59.576 223.227 55.9501 225.574C48.4765 230.41 40.9413 235.289 34.1392 241.053C30.4985 244.139 26.7534 247.079 22.9301 249.936C21.189 251.237 19.1834 252.43 17.5935 253.91C15.9228 255.466 14.5043 257.418 12.9397 259.091C9.79823 262.451 6.39845 265.575 3.27962 268.95C0.531296 271.923 -1.10464 276.355 -2.09873 280.227C-4.51048 289.628 -4.67225 299.417 -6.58477 308.91C-8.57557 318.79 -11.9344 328.641 -15.0106 338.232C-16.4813 342.816 -18.0668 347.365 -19.8707 351.829C-21.4579 355.759 -23.5 359.533 -24.8037 363.57C-27.052 370.532 -27.1998 378.238 -23.8775 384.892C-22.0998 388.451 -19.3567 391.221 -16.8058 394.224C-13.5426 398.064 -10.4437 402.042 -7.46578 406.106C-1.82389 413.807 3.40489 421.797 8.78848 429.675C10.214 431.761 11.8047 435.95 14.7487 436.059C17.5292 436.163 19.5278 434.09 20.7202 431.794C22.2066 428.932 22.6988 425.833 22.951 422.664C23.3372 417.812 23.8982 412.977 24.5748 408.158C27.3179 388.618 32.3771 369.295 33.2938 349.542C33.7374 339.966 37.8563 331.215 41.3196 322.429C42.031 320.625 42.8381 318.81 43.2791 316.919C43.7896 314.728 43.8722 312.457 44.4819 310.283C45.6221 306.224 47.679 301.193 50.3395 297.879C55.577 291.356 67.0443 294.109 74.0221 295.206C83.6821 296.724 93.4299 297.538 103.149 298.572C107.95 299.083 112.71 299.879 117.497 300.505C122.555 301.165 127.36 302.12 132.147 303.915C141.139 307.287 150.459 309.52 159.572 312.503C165.321 314.384 164.177 320.031 160.762 323.63C159.428 325.036 157.9 326.186 156.267 327.214C154.257 328.48 152.362 329.13 150.188 330.03C148.343 330.795 146.579 331.748 144.557 331.96C142.376 332.19 140.085 332.261 137.892 332.317C133.089 332.44 128.222 330.294 123.735 328.771C115.458 325.959 107.177 322.878 98.4778 321.651C90.6494 320.548 81.5426 320.698 74.4239 324.58C71.1502 326.366 68.6237 329.245 66.038 331.873C63.2758 334.678 60.6144 337.624 58.5453 340.988C57.2912 343.028 54.1002 347.89 55.8231 350.221C57.5756 352.591 61.5276 352.017 64.0498 351.966C68.6306 351.875 73.1854 351.195 77.6566 350.222C82.6288 349.139 87.3462 347.713 92.4906 347.692C102.424 347.654 111.779 350.808 119.88 356.46C127.029 361.447 132.323 368.332 137.508 375.232C139.949 378.48 142.103 382.083 142.562 386.195C142.844 388.73 142.255 389.815 139.954 390.933C137.962 391.902 135.785 392.431 133.577 392.58C129.374 392.865 124.712 392.01 120.852 390.31C116.651 388.46 113.463 384.264 110.518 380.902C108.173 378.227 105.777 375.439 102.911 373.297C99.9529 371.086 96.3713 369.564 92.8141 368.617C88.6551 367.512 84.2726 367.269 80.0075 367.808C76.4303 368.261 75.0666 370.097 74.3465 373.575C72.5366 382.322 70.7945 391.121 67.9679 399.61C62.6504 415.58 52.2868 431.363 37.9538 440.646C30.5768 445.424 21.3846 448.371 12.7292 445.391C5.63308 442.948 0.833969 436.738 -2.93194 430.566C-6.84569 424.15 -10.2716 417.341 -13.3008 410.473C-14.8089 407.054 -16.3509 403.617 -18.4173 400.49C-20.0272 398.055 -22.2102 394.765 -24.9742 393.547C-26.6545 392.806 -27.9965 393.105 -28.2452 395.072C-28.6549 398.305 -26.6397 401.309 -25.3369 404.063C-21.0961 413.032 -17.3954 422.24 -13.4086 431.322C-12.4424 433.524 -11.4587 435.72 -10.4472 437.901C-9.29659 440.383 -7.42058 443.118 -6.93962 445.842C-6.2308 449.859 -4.18609 453.591 -2.66494 457.414C0.840912 466.227 3.7919 475.329 5.24347 484.722C8.0692 502.999 3.6023 521.374 -2.18397 538.666C-7.74497 555.287 -15.262 571.171 -23.3026 586.72C-31.4067 602.394 -40.0578 617.782 -47.9566 633.562C-56.8583 651.344 -65.2398 669.406 -73.9675 687.277C-82.576 704.902 -91.0914 722.577 -98.965 740.545C-99.3008 741.31 -97.1143 742.642 -96.8542 742.05C-88.0796 722.026 -78.5065 702.369 -68.8996 682.733C-59.6187 663.763 -50.845 644.512 -41.0971 625.775C-23.7279 592.387 -3.8234 559.628 4.95732 522.648C7.24035 513.034 8.90413 503.314 8.26402 493.4C7.63433 483.646 5.2191 474.1 1.97156 464.908C0.289513 460.147 -1.6195 455.47 -3.6303 450.838C-4.42175 449.016 -4.4409 447.133 -5.1445 445.342C-6.21078 442.625 -7.7415 440.013 -8.95824 437.352C-13.4373 427.556 -17.3902 417.531 -21.8867 407.743C-23.3965 404.455 -26.638 400.136 -26.0439 396.291C-25.5839 393.314 -22.7912 396.783 -21.8824 397.925C-20.3229 399.885 -19.0453 402.054 -17.9103 404.282C-14.2401 411.483 -11.1482 418.908 -7.23791 426.005C-0.322739 438.555 10.0522 450.469 25.9081 447.988C34.9245 446.577 42.5216 441.031 48.974 434.903C55.4839 428.721 60.9675 421.176 65.0648 413.196C69.2264 405.092 71.7912 396.301 73.8386 387.461C74.9083 382.839 75.5371 378.027 76.8234 373.467C78.3011 368.227 85.2563 368.985 89.5858 369.488C95.1259 370.133 100.432 372.229 104.476 376.113C107.588 379.101 110.199 382.557 113.214 385.637C115.773 388.252 118.659 390.851 122.147 392.105C125.897 393.452 129.873 394.421 133.881 394.369C135.673 394.346 137.474 394.112 139.197 393.615C140.54 393.227 144.08 392.148 144.769 390.769C145.333 389.641 144.78 387.284 144.559 386.099C144.21 384.22 143.548 382.438 142.681 380.738C140.938 377.323 138.455 374.356 136.058 371.388C133.44 368.148 131.057 364.803 128.075 361.868C122.166 356.05 114.637 350.91 106.666 348.441C102.055 347.012 97.255 346.115 92.4228 345.971C87.5036 345.824 83.0115 346.812 78.2724 347.964C72.7949 349.295 67.1965 350.232 61.5468 350.239C60.9771 350.24 58.5784 350.529 58.0661 350.126C57.0268 349.307 58.3453 347.06 58.7454 346.142C59.6751 344.007 60.8806 342.004 62.2547 340.124C64.7395 336.724 67.7444 333.755 70.7319 330.802C74.1977 327.377 77.7201 325.122 82.5001 323.958C92.2932 321.573 102.383 323.312 111.868 326.166C116.779 327.644 121.599 329.403 126.464 331.022C130.642 332.412 134.937 334.169 139.401 334.055C143.661 333.946 147.425 333.715 151.347 332.022C153.455 331.111 155.463 330.57 157.42 329.347C158.987 328.368 160.443 327.404 161.822 326.151C164.359 323.848 166.612 320.524 165.721 316.926C165.033 314.143 162.518 312.224 159.952 311.257C155.481 309.573 150.686 308.52 146.106 307.164C140.732 305.572 135.442 303.805 130.187 301.86C125.711 300.202 121.047 299.425 116.329 298.809C111.425 298.169 106.559 297.357 101.641 296.834C90.7634 295.677 79.9588 294.395 69.1255 292.896C62.3921 291.964 52.1659 290.408 47.732 297.094C45.409 300.597 43.393 305.006 42.2815 309.065C41.6849 311.242 41.591 313.509 41.0778 315.699C40.442 318.414 39.1575 321.072 38.1182 323.65C36.3074 328.141 34.4418 332.62 33.0564 337.265C31.5509 342.311 31.2839 347.227 30.7838 352.424C29.7645 363.042 28.0859 373.467 26.1986 383.975C24.3556 394.24 22.511 404.513 21.3734 414.884C20.8046 420.067 21.2455 435.031 12.6213 434.267C13.1945 434.631 13.7685 434.996 14.3416 435.361C4.08237 420.695 -5.33847 405.398 -17.1989 391.924C-22.8356 385.519 -25.2725 378.245 -23.827 369.737C-23.1434 365.714 -21.5866 362.099 -19.9228 358.404C-18.0068 354.153 -16.3231 349.8 -14.7889 345.397C-11.8762 337.039 -9.50181 328.51 -7.0057 320.021C-4.29564 310.806 -3.12936 301.639 -1.85956 292.15C-1.22553 287.406 -0.597572 282.35 1.26363 277.906C1.98203 276.192 2.68649 274.423 3.62318 272.815C4.79036 270.809 6.5724 269.279 8.19705 267.649C11.1619 264.674 14.1024 261.674 16.9238 258.562C18.4598 256.869 19.8044 255.337 21.6447 253.968C23.3963 252.665 25.1515 251.366 26.8935 250.05C34.227 244.51 41.0969 238.472 48.6922 233.267C52.2685 230.817 56.0258 228.615 59.5751 226.133C62.3017 224.225 64.3664 221.54 66.5094 219.038C68.8246 216.336 71.6138 213.051 75.2057 212.115C79.7413 210.934 83.2307 215.544 85.5067 218.772C88.6064 223.168 86.6044 226.926 84.7536 231.286C83.1507 235.061 81.4121 238.681 79.1908 242.145C74.6987 249.151 68.515 254.476 62.5235 260.143C56.5989 265.748 51.3414 272.343 46.3396 278.777C45.2351 280.198 44.1853 281.668 43.2799 283.225C42.2458 285.005 41.7379 287.167 40.6534 288.843C39.6176 290.444 38.1799 291.857 37.0606 293.418C35.7708 295.216 34.5697 297.077 33.4303 298.975C29.1817 306.052 25.8272 313.609 21.9796 320.9C17.9745 328.488 12.5091 335.504 10.641 344.032C9.69037 348.373 9.75646 353.05 9.65731 357.479C9.55469 362.029 9.66338 366.587 10.1652 371.111C11.0906 379.454 13.4197 387.733 16.6899 395.458C19.5295 402.167 23.4285 409.591 28.9104 414.54C31.363 416.755 33.8678 419.105 36.6709 420.875C39.5358 422.683 42.2032 423.362 45.5673 423.457C49.3463 423.565 53.1557 423.15 56.7476 421.931C58.7836 421.24 60.6031 420.25 62.4678 419.205C64.0089 418.341 65.5475 418.431 67.0199 417.451C73.061 413.431 77.2557 407.471 80.4745 401.083C83.8769 394.331 87.3732 387.298 89.6806 380.1C90.9904 376.013 91.9992 371.842 93.029 367.68C94.1918 362.982 95.6825 358.579 97.4437 354.074C100.185 347.056 101.775 339.876 101.06 332.274C100.437 325.666 97.9794 318.908 93.2838 314.072C89.2944 309.965 81.473 308.876 79.043 315.102C78.469 316.574 78.2741 318.054 78.1758 319.625C77.9993 322.455 77.6392 324.525 76.0442 326.962C73.6429 330.632 71.3572 334.378 69.2081 338.199C65.1526 345.412 61.5946 352.897 58.5245 360.578C55.5152 368.109 52.0102 376.301 50.8587 384.366C49.695 392.521 51.9198 399.949 56.9328 406.426C59.4464 409.671 62.3651 412.571 65.0013 415.712C68.074 419.373 70.4171 423.547 73.0071 427.549C75.4641 431.345 77.9454 435.144 80.0501 439.15C82.3671 443.56 84.297 448.195 86.4974 452.668C90.5607 460.931 94.8145 469.102 98.6413 477.478C102.547 486.026 103.196 495.708 103.162 504.988C103.145 509.466 102.947 513.94 102.81 518.415C102.748 520.457 102.841 522.537 102.686 524.574C102.565 526.143 101.661 526.917 101.217 528.34C100.022 532.176 99.6137 536.301 98.4126 540.176C97.081 544.473 95.4407 548.673 93.6595 552.803C90.2711 560.66 86.3408 568.267 82.7715 576.04C80.9694 579.967 79.4378 583.976 78.0323 588.06C77.4557 589.735 76.907 591.42 76.4008 593.118C75.6693 595.572 75.2979 598.339 74.169 600.639C72.5331 603.973 70.8876 607.081 69.7482 610.654C68.5593 614.389 67.827 618.214 67.4322 622.11C67.3556 622.866 69.556 624.099 69.6335 623.329Z" fill="url(#paint1_linear_2_501)"/>
<path d="M14.7095 739.401C11.6768 743.522 9.96869 748.437 8.55887 753.305C6.99597 758.701 5.6218 764.131 3.87192 769.473C2.0742 774.958 0.0634079 780.368 -1.58038 785.906C-3.18936 791.323 -4.65659 796.775 -6.29688 802.183C-8.11286 808.155 -9.91753 814.24 -10.3254 820.508C-10.355 820.968 -7.78324 821.246 -7.76063 820.898C-7.39883 815.343 -5.92984 809.917 -4.34608 804.605C-2.73187 799.188 -1.17768 793.754 0.390427 788.319C1.9942 782.772 3.93974 777.337 5.77486 771.857C7.56388 766.513 9.07198 761.113 10.5636 755.683C12.0838 750.149 13.8302 744.469 17.2735 739.789C17.4048 739.611 16.1272 739.337 16.0333 739.323C15.7289 739.276 14.933 739.096 14.7095 739.401Z" fill="url(#paint2_linear_2_501)"/>
<path d="M115.888 738.43C115.092 743.592 117.485 748.535 120.028 752.867C122.891 757.744 126.005 762.492 129.125 767.207C135.738 777.201 142.72 786.948 149.799 796.61C156.898 806.306 163.965 816.037 171.203 825.638C178.427 835.213 185.949 844.554 193.211 854.102C196.875 858.92 200.449 863.799 203.928 868.756C207.125 873.304 210.723 877.541 214.536 881.586C215.493 882.602 216.463 883.6 217.44 884.598C218.527 885.701 220.212 884.312 219.035 883.114C215.193 879.207 211.498 875.153 208.179 870.787C204.628 866.117 201.353 861.229 197.832 856.533C190.74 847.062 183.331 837.835 176.137 828.451C168.963 819.076 162.052 809.509 155.058 800.004C148.016 790.438 141.033 780.828 134.367 770.993C131.079 766.144 127.871 761.241 124.774 756.267C122.172 752.09 119.115 747.725 118.368 742.751C118.185 741.537 118.17 740.339 118.357 739.125C118.565 737.776 116.112 736.969 115.888 738.43Z" fill="url(#paint3_linear_2_501)"/>
<path d="M202.828 106.807C201.795 106.639 200.923 105.972 199.891 105.755C198.83 105.531 197.735 105.459 196.665 105.28C194.431 104.907 192.214 104.43 190.036 103.81C187.94 103.214 185.889 102.477 183.904 101.579C181.834 100.644 179.876 99.4922 177.884 98.4054C170.037 94.1249 162.049 90.0823 154.475 85.3235C150.84 83.0404 147.154 80.6445 143.956 77.7712C142.605 76.5559 141.374 75.2016 140.421 73.6565C139.25 71.7554 138.663 69.5852 137.928 67.4931C136.446 63.2742 134.908 59.1856 132.357 55.4876C131.181 53.7775 130.203 51.9458 128.984 50.2617C127.757 48.569 126.232 47.1974 124.518 46.0082C122.719 44.7494 120.732 43.5862 118.591 43.0393C116.6 42.5358 114.502 42.5966 112.523 43.1349C108.657 44.1766 105.008 47.0759 102.739 50.3312C100.326 53.7861 99.0023 57.9095 97.6994 61.8766C97.1002 63.6996 96.5383 65.5573 95.8182 67.3369C95.1946 68.8907 94.5032 70.4098 93.9883 71.9897C93.5343 73.396 93.0099 75.1409 93.496 76.5993C94.0301 78.2052 95.4347 79.4378 96.6149 80.5663C99.9529 83.7609 103.203 87.0509 106.546 90.2402C109.933 93.4704 113.468 96.5199 116.517 100.082C117.954 101.76 119.342 103.484 120.857 105.092C122.421 106.753 124.116 108.287 125.836 109.783C129.246 112.749 132.611 115.79 136.24 118.489C138.082 119.858 139.968 121.168 141.857 122.472C143.696 123.742 145.497 125.091 147.495 126.105C149.391 127.067 151.399 127.779 153.419 128.429C155.735 129.173 158.027 129.957 160.312 130.793C164.749 132.414 169.115 133.799 173.878 133.965C178.585 134.13 183.267 133.455 187.878 132.575C190.115 132.148 192.399 131.773 194.578 131.098C196.422 130.527 198.199 129.762 199.92 128.89C203.478 127.085 206.81 124.845 210.458 123.219C212.16 122.46 213.902 122.017 215.677 121.48C217.436 120.946 219.256 120.001 219.669 118.045C220.075 116.119 219.222 114.184 218.925 112.302C218.734 111.087 218.802 109.923 218.828 108.702C218.847 107.742 218.795 106.806 218.3 105.961C217.489 104.582 215.835 103.904 214.342 103.562C212.492 103.137 210.449 102.658 208.546 102.718C206.399 102.786 204.187 103.607 202.177 104.302C201.256 104.621 200.343 104.958 199.45 105.349C198.419 105.801 197.739 106.128 196.811 105.325C195.188 103.924 193.731 102.28 192.182 100.795C190.45 99.1363 188.699 97.4965 186.92 95.8889C179.788 89.4512 171.981 83.839 164.274 78.1097C160.601 75.3839 156.98 72.554 153.223 69.9411C150.618 68.1268 147.82 66.5643 145.405 64.4896C143.146 62.5538 141.343 60.1318 140.986 57.1022C140.752 55.123 141.131 53.083 141.464 51.1298C141.844 48.8902 142.348 46.6766 142.949 44.489C145.392 35.5912 149.368 27.1969 153.477 18.9675C155.588 14.74 157.842 10.5905 160.202 6.49321C161.173 4.80914 162.255 3.0817 164.021 2.14417C165.53 1.33686 167.308 1.08512 168.998 1.18928C171.146 1.3195 173.136 2.17889 175.141 2.88204C177.181 3.60254 179.279 4.13204 181.348 4.75705C185.826 6.11994 190.148 8.10784 194.244 10.3562C198.351 12.6132 202.445 14.8181 206.715 16.7539C208.757 17.6828 210.829 18.5422 212.819 19.5752C214.803 20.6082 216.709 21.7801 218.664 22.8652C220.497 23.8896 222.33 24.9052 223.854 26.3722C225.38 27.8393 226.641 29.5494 227.783 31.3203C230.078 34.8881 232.157 38.6121 233.489 42.6487C234.867 46.8328 235.355 51.1385 235.58 55.5136C235.817 60.1231 235.795 64.7587 235.431 69.3595C234.833 76.8944 233.375 84.6741 230.308 91.6257C229.024 94.539 227.353 97.4141 224.892 99.4949C221.924 102.004 218.034 102.167 214.348 102.727C212.295 103.038 210.335 103.34 208.304 102.711C206.301 102.09 204.569 100.854 202.471 100.488C201.444 100.309 200.45 100.343 199.419 100.455C198.398 100.565 197.475 100.403 196.761 99.6112C196.051 98.8238 195.801 97.5477 195.444 96.5625C195.028 95.4131 194.689 94.2499 194.347 93.078C193.059 88.6829 191.756 84.2704 189.973 80.0455C188.263 75.9916 186.194 72.1026 183.969 68.3091C179.273 60.3054 174.108 52.5622 168.802 44.9578C168.133 43.9943 167.461 43.0393 166.788 42.0844C166.219 41.2771 165.551 40.4004 165.367 39.4108C165.099 37.9437 165.974 36.494 166.877 35.4263C169.038 32.8741 172.104 31.0772 175.079 29.6275C179.052 27.6917 183.292 26.3635 187.617 25.4781C191.673 24.6448 195.842 24.0545 199.983 23.8895C203.621 23.742 207.358 24.2194 210.375 26.4156C213.534 28.716 215.576 32.388 216.82 36.0166C218.115 39.7841 218.67 43.7686 218.905 47.7357C219.008 49.4979 219.132 51.3121 218.434 52.9788C217.66 54.8278 216.154 56.0865 214.578 57.2584C207.285 62.6492 200.274 68.3872 193.693 74.6374C190.275 77.884 187.083 81.3216 184.019 84.9016C182.764 86.3669 181.4 87.7775 180.207 89.2915C179.364 90.3601 178.565 91.6361 179.352 92.9504C180.001 94.0355 181.276 94.7299 182.385 95.2542C183.565 95.8115 184.831 96.2708 186.098 96.5903C188.51 97.1979 191.354 96.7274 192.897 94.6292C194.31 92.7082 194.64 90.1543 194.886 87.8487C195.203 84.8538 195.441 81.8598 195.776 78.8649C196.322 73.9777 196.813 69.0903 197.303 64.203C197.788 59.3592 198.353 54.5153 198.692 49.6627C198.759 48.6992 198.833 47.753 198.946 46.7981C199.052 45.8779 199.168 44.8797 198.882 43.9856C198.577 43.022 197.971 42.9959 197.047 42.9785C195.986 42.9438 194.928 42.9786 193.872 43.0915C189.468 43.5429 185.202 44.9665 181.204 46.8242C179.379 47.6749 177.606 48.6211 175.879 49.6541C174.106 50.7131 172.232 51.9892 170.147 52.3104C166.494 52.8833 162.95 50.3833 160.067 48.4822C156.681 46.2599 153.116 43.9508 149.296 42.5445C147.087 41.7285 144.738 41.2251 142.436 40.7476C140.155 40.2702 137.853 39.8709 135.532 39.6625C133.323 39.4629 131.107 39.3934 128.892 39.3153C127.058 39.2459 125.143 38.9767 123.364 39.567C121.916 40.0531 120.963 41.0774 120.299 42.4143C119.89 43.239 119.507 44.0984 119.21 44.9665C119.081 45.3484 118.963 45.7391 118.92 46.1384C118.862 46.6766 118.989 47.2234 118.586 47.6662C119.372 47.5707 120.158 47.4839 120.944 47.3884C120.139 46.6072 119.981 45.4613 119.341 44.5672C118.926 43.9856 116.902 44.3935 116.857 45.1487C116.759 46.772 117.47 48.2565 118.186 49.6715C118.534 50.3573 118.895 51.043 119.192 51.7549C119.536 52.5795 119.73 53.4476 120.074 54.2723C120.79 55.9737 121.679 57.5884 122.347 59.3245C123.026 61.078 123.623 62.8576 124.271 64.6198C125.544 68.0834 127.324 71.2172 129.036 74.4725C130.565 77.3806 131.859 80.358 133.772 83.0491C135.899 86.0379 138.25 88.8522 140.317 91.8931C142.409 94.9721 144.239 98.2048 146.25 101.335C148.235 104.425 150.785 106.969 153.127 109.776C155.473 112.589 157.716 115.55 160.507 117.949C172.061 127.88 188.453 126.796 202.632 125.331C210.511 124.516 218.45 123.547 226.225 122.015C233.247 120.632 240.331 119.083 246.981 116.385C249.47 115.375 251.959 114.218 254.197 112.728C255.197 112.062 256.351 111.276 256.918 110.189C257.682 108.724 258.07 107.037 258.173 105.396C258.423 101.405 258.749 97.421 259.144 93.4365C259.552 89.3201 260.246 85.2245 260.91 81.1393C262.164 73.4395 263.541 65.7309 264.496 57.979C264.941 54.3591 265.23 50.609 264.622 46.9891C264.101 43.8813 262.758 41.0341 260.82 38.5601C256.217 32.6745 250.627 27.5615 245.325 22.327C240.41 17.4658 235.366 12.6392 229.484 8.94986C226.505 7.08349 223.3 5.64253 220.046 4.31437C218.395 3.64595 216.695 3.05564 214.929 2.77785C213.063 2.49139 211.223 2.63892 209.36 2.87331C205.498 3.35943 201.723 4.3664 197.952 5.30393C194.208 6.23277 190.428 6.95328 186.632 7.64774C178.617 9.09743 170.562 10.3388 162.5 11.5194C158.494 12.101 154.485 12.6653 150.476 13.2382C146.59 13.7851 142.717 14.4275 138.958 15.582C135.852 16.5369 132.93 17.813 130.395 19.8704C128.138 21.7107 126.332 24.0024 124.797 26.459C122.931 29.4452 121.281 32.6658 120.02 35.9471C118.751 39.2632 117.935 42.8483 118.324 46.4074C118.53 48.2912 119.004 50.1663 119.406 52.0153C119.605 52.9268 119.804 53.8469 120.013 54.7584C120.211 55.6265 120.567 56.4772 120.581 57.38C120.592 58.0745 123.149 57.788 123.137 56.9373C123.124 56.0866 122.795 55.2966 122.604 54.4719C122.379 53.5084 122.172 52.5361 121.961 51.5725C121.571 49.7669 121.116 47.944 120.898 46.1123C120.466 42.4925 121.325 38.8812 122.648 35.5131C123.886 32.3706 125.464 29.2977 127.245 26.4243C128.744 24.0111 130.551 21.7194 132.804 19.9572C135.377 17.9432 138.406 16.8581 141.534 16.0247C145.195 15.0438 148.957 14.5664 152.701 14.0368C160.486 12.9257 168.271 11.8232 176.035 10.5732C183.66 9.34919 191.315 8.09916 198.814 6.23279C202.362 5.35603 205.914 4.40981 209.55 3.9584C211.394 3.7327 213.105 3.73274 214.911 4.21018C216.697 4.67894 218.391 5.42549 220.077 6.16336C223.135 7.5002 226.063 8.96729 228.835 10.8423C231.648 12.7434 234.27 14.9136 236.786 17.188C241.952 21.8582 246.895 26.8497 251.752 31.8325C254.258 34.4107 256.811 37.0496 258.925 39.9664C260.767 42.5012 261.86 45.4005 262.219 48.5082C262.642 52.1802 262.289 55.9216 261.791 59.5676C261.291 63.2395 260.699 66.9028 260.134 70.5574C258.957 78.2052 257.392 85.8365 256.623 93.5389C256.23 97.4765 255.746 101.445 255.639 105.399C255.592 107.056 255.216 108.866 254.403 110.328C253.838 111.345 252.622 112.059 251.661 112.654C246.475 115.869 240.408 117.637 234.53 119.081C227.37 120.842 220.114 122.012 212.809 122.983C205.175 123.998 197.515 124.89 189.807 125.019C182.745 125.137 175.622 124.515 169.205 121.352C166.261 119.901 163.549 118.001 161.241 115.666C158.632 113.025 156.43 110.017 153.982 107.233C152.822 105.913 151.58 104.674 150.511 103.275C149.497 101.949 148.596 100.541 147.728 99.1172C145.846 96.0338 143.981 92.9521 141.913 89.9876C139.886 87.0848 137.544 84.3998 135.585 81.4518C133.818 78.7955 132.592 75.8614 131.084 73.0662C130.2 71.4255 129.265 69.8109 128.458 68.1355C127.675 66.5035 127.051 64.8107 126.442 63.118C125.827 61.3992 125.237 59.6718 124.549 57.979C123.879 56.3383 122.948 54.7931 122.357 53.1264C121.848 51.6854 121.3 50.3486 120.617 48.977C119.947 47.6402 119.321 46.2339 119.412 44.706C118.584 44.897 117.756 45.088 116.928 45.2877C117.571 46.1818 117.712 47.319 118.531 48.1089C119.049 48.6037 120.437 48.3172 120.889 47.8311C121.279 47.4058 121.415 46.9977 121.447 46.4248C121.491 45.6609 121.641 45.0185 121.92 44.298C122.34 43.2129 122.798 41.9629 123.572 41.0688C124.145 40.4177 124.686 40.3483 125.53 40.3743C127.138 40.4437 128.749 40.5046 130.357 40.574C133.593 40.7129 136.766 41.0341 139.944 41.6678C143.065 42.2841 146.259 42.9439 149.146 44.3068C151.647 45.4874 154.094 46.9022 156.414 48.404C158.586 49.8103 160.709 51.3469 163.094 52.3799C165.464 53.4042 168.043 53.8382 170.601 53.3521C173.491 52.8052 175.959 51.208 178.45 49.7323C183.833 46.5551 190.389 43.7599 196.764 44.1766C196.55 44.1071 196.335 44.029 196.12 43.9595C196.922 45.3571 196.336 47.2582 196.224 48.7686C196.058 50.9996 195.9 53.2306 195.679 55.4528C195.239 59.88 194.783 64.3072 194.335 68.7344C193.88 73.2311 193.413 77.7191 192.891 82.1984C192.623 84.4884 192.533 86.7931 192.239 89.0761C191.989 91.0206 191.616 93.3896 190.245 94.8992C189.988 95.1822 189.697 95.4183 189.367 95.5789C189.221 95.6501 189.196 95.6423 189.119 95.6527C189.032 95.6648 188.794 95.6727 188.589 95.6562C187.518 95.5702 186.402 95.1197 185.414 94.7204C184.279 94.2629 183.053 93.7134 182.203 92.8045C181.233 91.7681 181.573 90.7142 182.354 89.6578C183.386 88.261 184.669 87.0066 185.795 85.6837C187.162 84.0786 188.547 82.4848 189.967 80.9309C195.694 74.6547 202.127 68.9862 208.738 63.6562C210.45 62.2846 212.184 60.9304 213.937 59.6022C215.362 58.5258 216.855 57.5363 218.216 56.3731C219.459 55.3227 220.513 54.064 221.076 52.5101C221.619 51.0083 221.569 49.385 221.49 47.8137C221.134 40.8952 219.818 33.3863 215.176 27.9435C212.968 25.3566 209.996 23.7073 206.659 23.0822C203.237 22.4399 199.725 22.6829 196.286 23.0561C188.252 23.9242 180.186 25.5736 172.933 29.2542C170.277 30.6084 167.67 32.1797 165.519 34.2631C164.503 35.244 163.512 36.4159 163.038 37.7701C162.527 39.2198 162.874 40.4698 163.665 41.7546C164.733 43.4821 165.994 45.1053 167.15 46.772C168.418 48.595 169.674 50.4354 170.916 52.2757C173.298 55.8175 175.616 59.4026 177.886 63.0139C182.178 69.8543 186.282 76.8596 188.969 84.5013C190.4 88.57 191.365 92.8002 192.832 96.8498C193.413 98.4574 193.757 100.281 195.404 101.129C196.23 101.553 197.151 101.72 198.075 101.694C199.097 101.663 200.059 101.423 201.082 101.625C202.912 101.986 204.488 103.072 206.238 103.666C208.02 104.271 209.915 104.386 211.779 104.205C213.831 104.008 215.888 103.641 217.925 103.327C219.805 103.036 221.712 102.678 223.482 101.96C228.941 99.7448 231.969 94.0997 233.876 88.8548C236.307 82.1636 237.571 75.0367 238.056 67.9532C238.351 63.6649 238.355 59.3592 238.135 55.0709C237.935 51.1819 237.547 47.319 236.465 43.5689C235.41 39.9056 233.747 36.5201 231.813 33.2474C229.873 29.9661 227.785 26.5719 224.644 24.2976C223.11 23.1864 221.424 22.3183 219.78 21.3808C218.074 20.4085 216.397 19.3928 214.651 18.4987C210.848 16.5455 206.848 14.983 203.03 13.0472C199.283 11.1461 195.704 8.94124 191.9 7.153C188.081 5.35608 184.159 3.99313 180.11 2.8299C176.455 1.77953 172.949 0 169.077 0C165.873 0 162.237 0.885457 159.989 3.31608C158.662 4.74841 157.742 6.52797 156.801 8.22072C155.742 10.1218 154.649 12.0056 153.627 13.924C151.623 17.6915 149.732 21.5197 147.906 25.3739C144.327 32.9262 141.104 40.7303 139.39 48.9336C138.705 52.2236 137.779 55.9997 138.798 59.2984C139.595 61.8766 141.417 63.9427 143.476 65.6181C145.654 67.389 148.082 68.8213 150.406 70.3925C153.861 72.719 157.145 75.3319 160.49 77.8146C167.55 83.0491 174.774 88.1603 181.439 93.9001C184.701 96.71 187.848 99.6511 190.942 102.643C191.641 103.321 192.34 103.999 193.034 104.682C193.642 105.281 194.2 105.971 194.917 106.446C196.456 107.463 198.481 107.041 200.087 106.411C201.927 105.688 203.726 104.952 205.634 104.409C206.449 104.177 207.326 103.872 208.181 103.891C209.224 103.915 210.248 104.211 211.27 104.395C212.66 104.646 214.148 104.85 215.228 105.859C216.72 107.255 216.173 109.341 216.211 111.157C216.254 113.158 217.073 115.02 217.206 116.997C217.263 117.86 217.138 118.776 216.594 119.481C216.07 120.163 215.25 120.431 214.454 120.652C210.973 121.617 207.809 122.969 204.655 124.727C201.562 126.452 198.546 128.346 195.234 129.639C193.419 130.346 191.536 130.722 189.633 131.104C187.476 131.537 185.314 131.948 183.137 132.264C178.932 132.874 174.613 133.106 170.417 132.313C166.135 131.504 162.102 129.669 157.995 128.276C154.131 126.966 150.275 125.88 146.871 123.545C143.41 121.171 139.922 118.818 136.625 116.221C133.343 113.634 130.197 110.815 127.079 108.034C124.009 105.297 121.399 102.233 118.724 99.1233C115.95 95.8984 112.759 93.1101 109.669 90.1942C106.525 87.2262 103.441 84.1767 100.356 81.148C99.1431 79.9587 97.7934 78.8215 96.7784 77.45C95.8565 76.2086 95.7417 74.9499 96.06 73.4655C96.7201 70.3838 98.2813 67.5278 99.2875 64.5416C100.52 60.8957 101.597 57.163 103.262 53.6733C104.916 50.2096 107.238 47.4666 110.49 45.3919C112.085 44.3762 113.844 43.6904 115.762 43.9074C117.815 44.1418 119.684 45.1921 121.404 46.2772C123.101 47.345 124.696 48.621 125.964 50.1836C127.15 51.6506 128.079 53.3 129.083 54.8886C130.111 56.5206 131.273 58.0571 132.147 59.7846C133.11 61.6944 133.849 63.7256 134.585 65.7396C135.883 69.2813 136.767 73.0315 139.175 76.0177C141.439 78.8389 144.51 80.957 147.448 83.0057C150.764 85.3209 154.207 87.4467 157.707 89.4711C164.799 93.5754 172.073 97.3975 179.292 101.277C182.707 103.112 186.387 104.436 190.147 105.369C191.999 105.828 193.875 106.193 195.761 106.487C196.659 106.628 197.615 106.656 198.493 106.9C199.419 107.158 200.19 107.735 201.156 107.891C201.739 107.986 202.466 107.934 202.964 107.577C203.335 107.309 203.373 106.896 202.828 106.807Z" fill="url(#paint4_linear_2_501)"/>
<path d="M200.173 130.301C199.984 132.113 201.27 133.221 202.272 134.55C203.577 136.285 204.247 138.262 204.706 140.361C205.738 145.091 205.251 149.656 204.14 154.327C203.016 159.053 201.72 163.668 200.986 168.479C200.247 173.328 199.437 178.178 198.103 182.905C197.431 185.28 196.737 187.616 196.262 190.041C195.812 192.338 195.446 194.649 194.927 196.931C193.814 201.812 191.743 206.484 189.964 211.151C186.417 220.449 182.671 229.607 178.315 238.562C174.056 247.319 169.539 255.951 165.51 264.819C163.524 269.188 162.229 273.642 161.274 278.338C160.299 283.136 159.199 287.887 158.103 292.658C156.968 297.592 156.334 302.611 155.559 307.611C154.782 312.625 153.982 317.636 153.196 322.65C151.638 332.577 150.106 342.486 149.644 352.535C149.413 357.571 149.191 362.585 148.428 367.575C147.706 372.295 147.364 377.038 147.286 381.81C147.205 386.776 146.448 391.664 146.008 396.603C145.572 401.519 146.135 406.381 146.339 411.293C146.442 413.784 146.403 416.268 146.075 418.742C145.973 419.516 148.21 418.568 148.323 417.851C148.649 415.764 148.975 413.677 149.301 411.589C149.479 410.451 147.204 411.507 147.083 412.286C146.757 414.373 146.431 416.461 146.105 418.548C146.854 418.251 147.602 417.954 148.352 417.657C149.01 412.683 148.405 407.72 148.168 402.741C147.933 397.82 148.566 393.02 149.087 388.139C149.611 383.245 149.498 378.333 149.885 373.431C150.279 368.486 151.233 363.619 151.559 358.667C151.885 353.731 151.971 348.785 152.421 343.857C152.891 338.684 153.62 333.539 154.408 328.406C155.947 318.371 157.559 308.348 159.083 298.309C159.829 293.387 161.195 288.598 162.263 283.743C163.298 279.031 163.999 274.242 165.501 269.643C167.018 264.997 169.341 260.57 171.475 256.183C173.63 251.757 175.85 247.363 178.038 242.953C182.343 234.277 186.347 225.515 189.859 216.487C191.694 211.772 193.485 207.04 195.261 202.303C197.01 197.641 197.716 192.864 198.749 188.021C199.758 183.298 201.315 178.742 202.186 173.976C203.066 169.167 203.621 164.326 204.831 159.581C205.985 155.055 207.398 150.502 207.599 145.805C207.766 141.867 207.117 137.233 204.942 133.856C203.989 132.375 202.249 131.145 202.449 129.215C202.531 128.43 200.262 129.441 200.173 130.301Z" fill="url(#paint5_linear_2_501)"/>
<path d="M156.771 297.498C156.165 297.23 155.896 296.317 155.709 295.746C155.394 294.787 155.206 293.792 155.027 292.801C154.613 290.521 154.035 288.279 153.697 285.984C153.283 283.165 152.873 280.318 152.628 277.478C152.416 275.015 152.324 272.542 152.013 270.088C151.714 267.739 151.22 265.367 150.188 263.22C149.005 260.757 147.1 259.054 145.011 257.354C140.162 253.407 134.857 250.026 130.165 245.881C121.178 237.945 113.796 227.272 110.766 215.603C109.219 209.645 108.802 203.445 109.048 197.311C109.171 194.246 109.444 191.169 109.17 188.105C108.905 185.14 108.025 182.445 106.458 179.914C104.941 177.463 102.988 175.164 102.499 172.243C102.032 169.457 102.673 166.618 103.462 163.951C104.284 161.18 105.302 158.469 105.863 155.626C106.493 152.433 107.03 149.178 106.842 145.913C106.751 144.334 106.474 142.78 106.03 141.262C105.311 141.743 104.594 142.225 103.876 142.706C107.5 146.586 111.092 150.48 115.387 153.641C117.446 155.157 119.582 156.577 121.525 158.242C123.5 159.932 125.369 161.737 127.379 163.388C129.257 164.933 131.22 166.403 133.328 167.623C135.481 168.869 137.825 169.211 140.253 169.532C142.648 169.849 144.938 170.366 147.102 171.471C149.14 172.51 151.351 174.057 152.523 176.073C153.676 178.054 153.648 180.52 153.75 182.741C153.874 185.455 153.904 188.176 154.131 190.885C154.585 196.273 156.521 201.335 157.262 206.677C157.976 211.825 157.747 217.006 156.465 222.048C155.886 224.324 155.322 226.633 154.37 228.788C153.922 229.799 153.402 230.808 152.589 231.577C151.801 232.323 150.832 232.855 149.944 233.468C148.027 234.791 146.588 236.362 146.101 238.693C145.633 240.929 145.922 243.275 145.212 245.471C144.864 246.549 144.341 247.012 143.411 247.588C142.441 248.187 141.5 248.836 140.757 249.713C139.093 251.676 138.998 254.278 138.807 256.719C139.534 256.279 140.262 255.839 140.989 255.4C136.626 239.452 134.496 223.022 131.151 206.854C129.512 198.933 127.587 191.056 124.967 183.395C123.642 179.522 122.14 175.707 120.422 171.99C118.781 168.438 117.299 164.514 114.72 161.519C113.137 159.681 111.414 157.969 109.802 156.158C108.409 154.59 107.201 152.887 105.549 151.569C102.411 149.069 98.5004 147.652 94.5536 147.092C94.0222 147.016 93.4464 147.395 93.0551 147.72C92.9594 147.799 92.1427 148.615 92.6106 148.682C96.1408 149.183 99.6676 150.361 102.601 152.42C104.145 153.503 105.309 154.841 106.505 156.277C107.891 157.937 109.393 159.495 110.863 161.081C112.259 162.587 113.581 164.089 114.603 165.88C115.589 167.608 116.363 169.445 117.223 171.235C118.977 174.888 120.571 178.603 121.957 182.412C127.561 197.816 130.148 214.071 133.066 230.135C134.694 239.097 136.43 248.052 138.835 256.844C138.984 257.388 140.978 256.028 141.017 255.525C141.176 253.486 141.095 250.657 142.726 249.139C143.332 248.574 144.139 248.224 144.814 247.749C145.658 247.154 146.447 246.441 146.943 245.522C148.77 242.135 146.766 236.86 150.223 234.366C152.067 233.036 154.049 231.949 155.35 230.013C156.614 228.134 157.303 225.909 157.91 223.75C159.286 218.854 160.131 213.961 159.813 208.86C159.652 206.27 159.247 203.702 158.69 201.169C158.108 198.516 157.231 195.926 156.778 193.247C156.325 190.569 156.192 187.851 156.093 185.141C156.001 182.589 156.053 179.958 155.619 177.434C155.22 175.112 154.028 173.449 152.228 171.965C150.521 170.558 148.543 169.48 146.436 168.802C144.132 168.061 141.72 167.979 139.359 167.524C136.781 167.027 134.637 165.758 132.522 164.251C130.132 162.548 127.916 160.614 125.74 158.65C123.595 156.715 121.381 154.959 119.033 153.277C116.643 151.565 114.364 149.761 112.243 147.724C110.088 145.652 108.068 143.446 106.03 141.262C105.554 140.753 103.693 142.08 103.876 142.706C104.822 145.936 104.809 149.294 104.371 152.607C103.965 155.685 103.3 158.69 102.355 161.646C101.481 164.381 100.497 167.138 100.211 170.011C99.9268 172.867 100.557 175.462 102.063 177.897C103.571 180.336 105.362 182.615 106.226 185.39C107.159 188.387 107.145 191.59 107.018 194.695C106.765 200.884 106.626 206.982 107.744 213.107C109.927 225.072 116.463 235.868 124.969 244.449C129.378 248.898 134.53 252.43 139.515 256.19C141.833 257.939 144.424 259.701 146.296 261.943C147.855 263.809 148.787 266.096 149.318 268.449C149.878 270.919 150.045 273.462 150.219 275.983C150.398 278.579 150.706 281.14 151.031 283.722C151.393 286.59 151.89 289.379 152.493 292.202C152.87 293.977 153.034 295.816 153.672 297.526C153.9 298.135 154.197 298.809 154.828 299.089C155.465 299.37 157.326 297.744 156.771 297.498Z" fill="url(#paint6_linear_2_501)"/>
<path d="M149.061 369.689C149.996 365.906 150.91 362.048 152.839 358.622C154.859 355.034 157.988 352.072 161.098 349.423C163.958 346.987 166.944 344.779 170.265 343.013C173.48 341.304 176.8 339.787 179.893 337.854C181.377 336.927 182.814 335.919 184.134 334.769C185.44 333.631 186.807 332.327 187.53 330.726C188.884 327.729 187.023 324.729 186.187 321.871C185.016 317.869 184.113 313.625 183.703 309.474C183.285 305.246 183.61 300.961 184.94 296.911C185.914 293.95 187.551 291.235 189.931 289.193C192.136 287.302 194.823 286.132 197.495 285.059C201.275 283.541 205.126 282.296 209.121 281.478C213.39 280.604 217.733 280.158 222.085 279.969C230.791 279.593 239.481 280.289 248.183 280.411C252.776 280.475 257.379 280.467 261.957 280.89C263.841 281.065 265.839 281.595 267.731 281.34C269.536 281.096 271.212 280.273 272.708 279.269C273.068 279.026 273.417 278.77 273.769 278.515C274.034 278.323 274.452 277.883 274.785 277.806C275.245 277.699 275.101 278.251 274.979 278.66C274.834 279.155 274.614 279.625 274.388 280.088C274.026 280.828 273.628 281.549 273.388 282.34C273.1 283.291 272.99 284.292 272.885 285.277C272.399 289.836 271.51 294.354 270.851 298.892C270.327 302.497 269.811 306.057 268.565 309.5C267.429 312.639 265.791 315.62 263.595 318.146C261.317 320.767 258.628 322.911 255.338 324.085C251.842 325.332 248.174 325.991 244.631 327.081C241.311 328.102 238.062 329.387 235.142 331.292C233.809 332.162 232.56 333.16 231.435 334.288C230.154 335.571 229.09 337.038 227.95 338.444C225.775 341.126 223.4 343.703 220.486 345.602C219.018 346.56 217.407 347.27 215.879 348.126C214.158 349.088 212.471 350.148 210.65 350.916C208.964 351.628 207.104 352.086 205.269 351.802C203.687 351.558 202.262 350.778 201.015 349.803C198.362 347.729 196.446 344.888 194.272 342.357C191.434 339.056 188.282 336.049 185.352 332.833C183.262 330.54 180.688 327.204 182.875 324.137C184.057 322.481 186.05 321.576 187.832 320.721C189.665 319.841 191.511 318.982 193.233 317.897C196.839 315.625 200.075 312.688 203.294 309.914C209.321 304.723 215.413 299.365 222.446 295.55C225.73 293.77 229.25 292.422 232.912 291.664C235.008 291.23 237.106 291.084 239.236 290.925C241.433 290.761 243.623 290.496 245.807 290.203C250.258 289.607 254.685 288.949 259.17 288.699C262.69 288.502 266.217 287.923 269.484 286.56C272.98 285.101 276.034 282.655 278.814 280.12C280.179 278.876 281.372 277.501 282.302 275.903C283.187 274.38 284.158 272.697 283.978 270.867C283.887 269.926 283.534 268.505 282.579 268.07C281.411 267.537 279.66 268.936 278.871 269.654C278.471 270.017 279.339 269.718 279.42 269.684C279.956 269.46 280.502 269.149 280.934 268.757C280.614 268.929 280.294 269.1 279.974 269.271C280.067 269.27 280.16 269.282 280.249 269.307C280.378 269.407 280.536 269.45 280.667 269.562C280.913 269.773 281.086 270.074 281.226 270.36C281.542 271.011 281.721 271.766 281.733 272.488C281.753 273.739 281.221 274.917 280.639 275.995C280.03 277.122 279.372 278.224 278.537 279.199C277.037 280.952 275.187 282.355 273.383 283.777C271.601 285.18 269.745 285.988 267.534 286.522C265.293 287.065 263.013 287.292 260.715 287.418C258.075 287.563 255.447 287.87 252.828 288.22C250.108 288.584 247.394 288.993 244.668 289.3C242.12 289.587 239.55 289.642 237.012 290C227.806 291.297 219.533 296.22 212.235 301.73C208.246 304.742 204.479 308.022 200.688 311.275C198.652 313.021 196.597 314.75 194.468 316.383C192.466 317.918 190.368 318.997 188.103 320.089C185.98 321.112 183.825 322.223 182.028 323.765C180.562 325.02 179.472 326.69 179.812 328.686C180.16 330.734 181.637 332.491 182.988 333.984C184.706 335.884 186.524 337.692 188.291 339.545C190.044 341.385 191.754 343.263 193.355 345.237C194.568 346.733 195.762 348.255 197.13 349.616C198.473 350.953 200.005 352.158 201.817 352.784C203.802 353.469 205.893 353.194 207.855 352.565C210.058 351.858 212.121 350.747 214.128 349.613C216.138 348.477 218.219 347.459 220.209 346.29C223.826 344.167 226.836 341.378 229.507 338.167C230.94 336.444 232.231 334.597 233.855 333.042C235.198 331.755 236.716 330.721 238.415 329.958C242.402 328.169 246.714 327.371 250.896 326.181C255.222 324.949 259.191 323.132 262.642 320.208C265.677 317.634 268.12 314.466 269.793 310.856C271.592 306.977 272.38 302.851 272.974 298.648C273.356 295.945 273.784 293.249 274.213 290.553C274.427 289.205 274.645 287.857 274.852 286.508C275.057 285.168 275.126 283.809 275.351 282.471C275.712 280.323 277.198 278.59 277.438 276.43C277.415 276.421 277.392 276.412 277.37 276.402C275.964 276.567 274.67 277.318 273.507 278.082C272.927 278.464 272.375 278.885 271.808 279.286C271.199 279.717 270.806 279.858 269.952 280.008C268.357 280.289 266.675 279.848 265.089 279.678C263.199 279.477 261.301 279.355 259.402 279.277C255.701 279.125 251.998 279.143 248.295 279.066C244.657 278.99 241.023 278.794 237.386 278.677C230.386 278.451 223.349 278.414 216.391 279.311C209.786 280.163 203.483 281.983 197.353 284.556C192.84 286.45 188.214 288.889 185.265 292.92C181.614 297.912 180.845 304.741 181.435 310.73C181.769 314.126 182.532 317.463 183.329 320.776C183.699 322.316 184.111 323.812 184.658 325.3C185.087 326.468 185.559 327.65 185.713 328.894C186.092 331.958 183.803 334.276 181.593 336.058C179.392 337.831 176.875 339.149 174.365 340.425C171.706 341.779 169.018 343.095 166.49 344.687C163.757 346.408 161.193 348.438 158.757 350.554C156.324 352.668 153.948 354.941 152.021 357.535C150.103 360.116 148.908 363.11 148.02 366.178C147.577 367.708 147.201 369.255 146.819 370.801C146.749 371.082 147.661 370.63 147.739 370.592C148.033 370.449 148.968 370.066 149.061 369.689Z" fill="url(#paint7_linear_2_501)"/>
<defs>
<linearGradient id="paint0_linear_2_501" x1="92.5" y1="0" x2="92.5" y2="885" gradientUnits="userSpaceOnUse">
<stop stop-color="#F0A56D"/>
<stop offset="1" stop-color="#FFD1AF" stop-opacity="0"/>
</linearGradient>
<linearGradient id="paint1_linear_2_501" x1="92.5" y1="0" x2="92.5" y2="885" gradientUnits="userSpaceOnUse">
<stop stop-color="#F0A56D"/>
<stop offset="1" stop-color="#FFD1AF" stop-opacity="0"/>
</linearGradient>
<linearGradient id="paint2_linear_2_501" x1="92.5" y1="0" x2="92.5" y2="885" gradientUnits="userSpaceOnUse">
<stop stop-color="#F0A56D"/>
<stop offset="1" stop-color="#FFD1AF" stop-opacity="0"/>
</linearGradient>
<linearGradient id="paint3_linear_2_501" x1="92.5" y1="0" x2="92.5" y2="885" gradientUnits="userSpaceOnUse">
<stop stop-color="#F0A56D"/>
<stop offset="1" stop-color="#FFD1AF" stop-opacity="0"/>
</linearGradient>
<linearGradient id="paint4_linear_2_501" x1="92.5" y1="0" x2="92.5" y2="885" gradientUnits="userSpaceOnUse">
<stop stop-color="#F0A56D"/>
<stop offset="1" stop-color="#FFD1AF" stop-opacity="0"/>
</linearGradient>
<linearGradient id="paint5_linear_2_501" x1="92.5" y1="0" x2="92.5" y2="885" gradientUnits="userSpaceOnUse">
<stop stop-color="#F0A56D"/>
<stop offset="1" stop-color="#FFD1AF" stop-opacity="0"/>
</linearGradient>
<linearGradient id="paint6_linear_2_501" x1="92.5" y1="0" x2="92.5" y2="885" gradientUnits="userSpaceOnUse">
<stop stop-color="#F0A56D"/>
<stop offset="1" stop-color="#FFD1AF" stop-opacity="0"/>
</linearGradient>
<linearGradient id="paint7_linear_2_501" x1="92.5" y1="0" x2="92.5" y2="885" gradientUnits="userSpaceOnUse">
<stop stop-color="#F0A56D"/>
<stop offset="1" stop-color="#FFD1AF" stop-opacity="0"/>
</linearGradient>
</defs>
</svg>
