<svg width="450" height="837" viewBox="0 0 450 837" fill="none" xmlns="http://www.w3.org/2000/svg">
<path d="M351.72 61.323C358.055 63.0874 364.422 64.7027 370.81 66.2049C365.63 61.4807 358.334 59.4926 351.72 61.323ZM537.603 181.995C543.855 176.523 548.267 169.147 550.343 160.767C552.69 151.275 552.046 141.226 550.022 131.741C547.989 122.21 544.604 113.064 540.628 104.291C536.938 96.1465 532.641 88.2323 527.273 81.2237C521.958 74.2854 515.563 68.2613 508.022 64.2914C501.629 60.9245 494.464 59.6119 487.382 60.2256C480.637 60.8095 473.837 63.2132 468.439 67.6838C462.694 72.4443 457.876 80.546 458.734 88.6329C459.697 97.7127 468.649 101.244 476.063 101.484C485.564 101.791 494.761 97.4911 504.302 99.3173C520.082 102.335 528.697 120.522 528.223 136.47C527.922 146.53 524.808 156.243 520.718 165.205C517.013 173.315 512.509 181.185 506.734 187.791C505.124 189.632 503.384 191.354 501.546 192.943C514.236 194.154 527.701 190.659 537.603 181.995ZM258.221 121.933C258.039 117.948 257.417 113.989 256.26 110.193C255.25 106.882 253.81 102.997 250.815 101.21C247.675 99.3364 245.446 102.168 244.674 105.228C243.786 108.738 243.616 112.488 243.059 116.071C240.522 132.468 236.011 148.497 229.714 163.675C226.62 171.133 222.388 178.447 221.212 186.634C220.726 190.003 220.607 194.29 222.685 197.131C223.468 198.196 224.615 198.935 225.902 198.603C227.461 198.2 228.434 196.513 229.127 195.091C230.924 191.418 232.222 187.371 233.658 183.525C235.171 179.478 236.641 175.414 238.069 171.334C240.926 163.172 243.614 154.943 246.132 146.651C247.637 141.695 248.832 135.986 250.379 133.943C252.548 130.885 255.242 128.441 258.245 126.461C258.285 124.959 258.291 123.452 258.221 121.933ZM174.673 248.128C175.666 247.139 177.159 248.737 176.163 249.728C172.7 253.176 174.673 259.633 178.467 261.859C183.823 265.005 190.414 261.446 194.392 257.408C201.81 249.875 204.172 238.686 204.552 228.099C205.326 206.543 196.997 182.755 206.755 162.38C209.025 157.643 212.295 153.756 216.101 150.389C219.752 147.156 223.719 144.331 227.16 140.83C231.217 136.704 233.729 131.878 234.09 125.798C234.472 119.393 233.489 113.006 235.062 106.707C241.383 81.4282 268.865 74.3664 289.768 71.4513C302.979 69.6102 316.368 69.314 329.636 70.6117C341.912 71.8136 354.487 75.5149 366.844 73.4757C369.57 73.0239 372.226 72.2248 374.77 71.0954C374.374 70.4199 373.948 69.77 373.484 69.1499C364.875 67.1873 356.302 65.0372 347.796 62.6016C346.968 62.3651 346.674 60.9459 347.542 60.5218C356.763 56.0021 368.17 58.9897 374.669 67.1127C384.831 69.4162 395.057 71.3916 405.334 73.0303C391.873 60.4195 373.415 54.6256 356.193 51.2246C338.814 47.7917 320.423 47.3464 303.351 52.8015C293.876 55.8274 285 60.786 277.484 67.7201C276.751 68.3956 275.378 67.784 275.721 66.6311C283.326 41.0537 306.81 26.2524 328.353 16.0667C341.173 10.0042 354.717 5.62936 368.839 7.74536C381.032 9.57156 392.27 15.5914 402.737 22.2868C414.096 29.5511 424.925 37.8169 436.714 44.2693C426.73 27.516 409.658 17.6755 392.854 10.3984C387.66 8.14815 382.393 6.0961 377.115 4.08878C376.196 3.73931 376.002 2.15172 377.115 1.89814C407.244 -5.00177 440.127 7.31282 460.263 32.2829C462.791 35.4153 465.119 38.746 467.199 42.2407C469.312 45.7908 471.586 50.1421 470.109 54.4572C468.888 58.0244 465.667 60.085 462.643 61.6512C458.867 63.6095 455.087 65.4826 451.474 67.7797C444.319 72.3314 437.59 78.1658 433.301 85.9458C428.679 94.3267 427.606 104.203 429.083 113.714C430.593 123.431 434.333 132.624 438.919 141.092C443.307 149.198 448.501 156.88 454.297 163.886C465.257 177.141 479.389 188.59 495.875 192.083C496.768 192.272 497.667 192.436 498.573 192.579C504.823 187.684 509.775 180.987 513.818 173.963C518.759 165.374 522.94 155.974 524.967 146.07C526.91 136.572 526.591 126.527 522.463 117.735C518.943 110.234 512.899 103.82 505.14 101.813C495.589 99.3407 486.127 103.903 476.567 103.76C469.913 103.66 462.262 101.376 458.554 94.9254C454.461 87.7997 457.175 78.4023 461.47 72.131C465.333 66.4884 470.919 62.5504 477.026 60.2597C490.538 55.1881 505.159 58.3057 516.607 67.2086C530.129 77.7226 538.919 93.9666 545.448 110.147C552.318 127.168 557.496 147.593 551.074 165.7C545.785 180.614 533.245 190.384 519.048 193.881C512.424 195.513 505.742 195.769 499.211 194.84C495.282 197.815 490.93 200.105 486.208 201.273C478.577 203.161 470.507 202.147 463.253 199.106C447.375 192.451 436.962 177.398 431.546 160.472C430.072 155.865 428.949 151.133 428.099 146.347C427.33 142.036 427.229 137.441 426.074 133.231C425.49 131.104 424.391 129.065 422.214 128.583C420.033 128.1 417.693 129.127 415.635 129.99C413.989 130.68 412.335 131.36 410.716 132.123C391.244 141.313 375.105 156.462 360.765 172.943C347.401 188.304 335.442 204.994 322.287 220.556C319.096 224.33 315.835 228.037 312.473 231.639C309.773 234.53 306.428 239.27 302.369 239.807C299.439 240.194 297.151 238.08 296.557 235.082C295.84 231.468 296.921 227.831 298.139 224.502L307.721 198.328C301.184 205.315 294.647 212.303 288.11 219.29C284.612 223.028 281.24 227.019 277.48 230.456C274.467 233.209 270.701 235.847 266.565 235.427C259.289 234.688 257.003 225.981 256.758 219.38C256.395 209.616 258.144 199.654 261.476 190.584C274.82 154.282 311.529 139.996 342.265 125.792C361.718 116.799 381.172 107.809 400.625 98.8165C380.362 102.531 360.099 106.247 339.836 109.961C328.367 112.064 316.897 114.168 305.425 116.271C295.126 118.159 284.665 119.631 274.487 122.193C269.636 123.412 264.681 125.112 260.317 127.761C260.036 133.887 258.929 139.984 257.389 145.865C253.045 162.454 245.094 178.006 243.032 195.262C242.101 203.038 242.354 211.118 244.686 218.6C246.875 225.632 253.701 234.309 259.527 238.272C271.781 246.606 286.741 248.194 300.711 251.179C315.225 254.28 329.177 259.873 341.932 267.969C348.245 271.975 354.242 276.56 359.836 281.656C365.192 286.531 370.854 291.89 374.281 298.583C375.879 301.71 376.854 305.132 376.88 308.716C376.884 309.398 376.426 309.747 375.937 309.792C373.787 316.24 369.721 321.768 367.847 328.329C366.836 331.866 366.757 335.672 368.459 338.988C370.166 342.316 373.259 344.633 376.549 345.862C384.934 349.001 394.468 345.476 402.705 343.305C411.065 341.104 419.403 338.783 427.829 336.876C443.32 333.373 459.243 331.336 474.986 334.065C489.167 336.525 502.925 342.96 512.808 354.424C535.64 380.907 533.305 419.816 531.496 453.19C529.382 492.267 526.635 531.299 524.567 570.378C522.506 609.284 521.118 648.258 521.706 687.233C521.779 692.055 521.884 696.877 522.017 701.699C522.059 703.161 519.953 703.157 519.911 701.699C518.822 662.476 519.87 623.229 521.766 584.052C523.665 544.832 526.401 505.668 528.649 466.47C529.749 447.33 531.443 427.943 530.068 408.773C528.873 392.124 524.826 375.275 515.583 361.599C506.651 348.387 493.191 340.411 478.502 337.068C462.575 333.441 446.223 335.176 430.411 338.615C421.744 340.499 413.176 342.866 404.595 345.14C396.642 347.245 388.098 350.269 379.821 349.018C373.552 348.07 367.155 343.872 365.448 336.955C363.752 330.093 367.223 323.52 370.166 317.696C371.846 314.376 373.51 311.043 374.475 307.388C374.511 307.256 374.572 307.156 374.633 307.058C373.946 300.167 369.463 294.467 364.998 289.762C359.947 284.443 354.467 279.593 348.651 275.271C337.055 266.656 324.151 260.097 310.576 256.01C296.028 251.627 280.545 250.985 266.504 244.671C260.581 242.008 254.945 238.319 250.492 233.297C245.904 228.116 242.895 221.617 241.494 214.645C235.427 184.432 256.11 158.418 258.115 129.184C256.91 130.062 255.775 131.038 254.723 132.123C252.637 134.266 251.169 137.009 250.31 139.971C245.747 155.665 240.591 171.159 234.833 186.393C234.006 188.581 233.167 190.763 232.319 192.941C231.675 194.58 231.069 196.261 230.112 197.725C228.555 200.114 225.98 201.795 223.274 200.483C220.754 199.257 219.431 196.072 219.048 193.282C218.51 189.317 219.102 185.232 220.185 181.43C222.503 173.298 226.675 165.842 229.704 158.005C232.836 149.907 235.437 141.569 237.515 133.088C239.579 124.656 240.944 116.139 242.107 107.519C242.499 104.613 243.228 101.263 245.583 99.4494C248.071 97.5358 251.096 98.3392 253.293 100.338C255.892 102.708 257.259 106.217 258.297 109.62C259.46 113.437 260.086 117.436 260.303 121.44C260.371 122.674 260.387 123.906 260.379 125.138C263.023 123.646 265.842 122.459 268.716 121.509C278.296 118.34 288.453 117.093 298.302 115.286C321.73 110.993 345.161 106.697 368.589 102.401C382.012 99.9395 395.435 97.4783 408.858 95.0171C409.938 94.8189 410.825 96.5535 409.646 97.099C391.047 105.695 372.448 114.291 353.851 122.887C337.772 130.318 321.324 137.222 305.837 146.035C291.747 154.054 278.233 164.293 269.426 178.879C264.634 186.813 261.381 195.765 259.834 205.075C259.053 209.775 258.685 214.606 258.863 219.38C258.994 222.925 259.59 226.819 261.536 229.778C268.556 240.469 280.695 224.023 285.566 218.813C293.639 210.187 301.711 201.559 309.783 192.933C310.471 192.198 311.947 192.926 311.546 194.022C307.577 204.862 303.45 215.65 299.637 226.556C298.68 229.288 297.297 234.294 299.583 236.712C301.471 238.709 304.114 236.919 305.716 235.468C307.571 233.789 309.268 231.875 310.986 230.036C324.939 215.092 337.089 198.373 350.008 182.425C361.971 167.656 374.762 153.46 389.778 142.247C396.968 136.877 404.645 132.272 412.776 128.771C416.294 127.256 420.892 124.861 424.567 127.147C427.649 129.063 428.414 133.239 428.842 136.721C431.14 155.414 436.451 174.935 450.048 187.846C462.694 199.856 481.345 204.28 496.196 194.32C488.953 192.875 481.935 189.99 475.433 185.903C461.034 176.857 449.65 163.042 440.547 148.198C431.233 133.005 423.145 113.594 427.53 95.0704C429.591 86.3677 434.505 78.9137 440.805 73.1283C447.056 67.3855 454.247 63.4859 461.603 59.6822C465.659 57.5833 469.631 54.5297 468.096 49.0489C466.874 44.6891 463.758 40.5402 461.171 37.0008C456.359 30.4248 450.642 24.6009 444.309 19.7446C431.466 9.8976 416.102 3.76061 400.36 2.48206C394.052 1.97064 387.723 2.286 381.489 3.36637C399.039 10.1192 417.174 17.8992 430.486 32.3021C434.373 36.5064 437.716 41.2562 440.375 46.4492C440.902 47.4742 439.854 48.4587 438.941 47.9941C427.806 42.3323 417.614 34.8507 407.186 27.8612C397.065 21.0764 386.511 14.511 374.861 11.3274C368.801 9.67172 362.544 9.03676 356.308 9.6249C349.03 10.3153 341.944 12.6018 335.163 15.4487C323.598 20.3029 312.176 26.4314 302.056 34.2007C292.24 41.7356 283.615 51.4164 279.035 63.4838C307.507 40.0736 348.824 43.6513 380.903 55.9233C391.354 59.923 401.356 65.5018 409.335 73.9189C410.148 74.7755 409.29 75.9624 408.325 75.8154C397.672 74.198 387.074 72.2014 376.539 69.8702C376.773 70.2665 377.016 70.6565 377.228 71.072C377.482 71.5727 377.359 72.359 376.832 72.6169C365.376 78.1935 352.726 76.1372 340.71 74.3152C326.924 72.2227 313.072 71.5024 299.179 72.6638C286.087 73.7591 272.213 75.8367 260.091 81.5475C249.559 86.5105 239.826 95.4198 236.96 107.864C235.417 114.579 236.847 121.475 235.964 128.253C235.254 133.706 232.64 138.268 229.012 142.057C225.492 145.733 221.368 148.646 217.588 151.991C213.484 155.625 210.093 159.829 207.88 165.071C203.266 176.007 203.865 188.756 204.914 200.416C205.946 211.889 207.525 223.281 206.141 234.812C204.895 245.191 200.968 255.85 192.573 261.861C188.496 264.781 183.045 266.428 178.352 264.303C176.173 263.319 174.438 261.393 173.396 259.108C171.464 254.857 172.049 250.74 174.673 248.128Z" fill="url(#paint0_linear_2_527)"/>
<path d="M87.8984 457.424C86.379 457.369 84.8635 457.518 83.364 457.87C83.3679 458.061 83.3422 458.247 83.259 458.413C84.8596 458.413 86.4305 458.083 87.8984 457.424ZM218.904 331.568C220.112 333.697 222.208 335.163 224.262 336.354C225.28 336.942 226.34 337.543 227.428 338.048C225.881 335.37 221.77 332.921 218.904 331.568ZM195.806 359.381C194.049 357.618 192.207 355.948 190.263 354.431C188.671 353.186 186.836 351.901 184.848 351.765C185.929 353.693 187.409 355.294 189.037 356.753C191.325 358.803 193.736 360.704 196.129 362.607C198.369 364.388 200.64 366.125 202.926 367.836C200.776 364.81 198.401 361.98 195.806 359.381ZM86.3373 445.09C86.9673 447.833 90.2082 450.124 92.4664 451.632C90.6895 449.186 88.6372 446.993 86.3373 445.09ZM417.727 271.696C417.846 274.828 417.844 278.163 418.485 281.257C418.818 280.411 419.137 279.557 419.43 278.689C423.196 267.5 425.777 255.697 428.303 244.126C429.612 238.129 430.819 232.105 431.922 226.06C433.037 219.944 434.176 213.777 434.321 207.529C434.39 204.57 434.196 201.635 433.699 198.729C431.029 198.75 429.252 201.963 428.251 204.286C426.809 207.638 425.797 211.288 424.769 214.807C422.632 222.113 420.962 229.58 419.773 237.132C418.563 244.816 417.861 252.59 417.661 260.38C417.564 264.152 417.586 267.926 417.727 271.696ZM232.243 204.889C231.61 213.095 233.755 221.325 237.673 228.444C238.161 229.329 238.689 230.173 239.224 231.012C236.897 222.305 234.569 213.598 232.243 204.889ZM221.019 253.233C220.253 254.288 219.754 255.588 219.361 256.884C218.607 259.381 217.955 261.919 217.339 264.461C216.067 269.722 215.051 275.056 214.29 280.432C213.482 286.141 212.993 291.897 212.781 297.663C217.583 283.403 220.362 268.395 221.019 253.233ZM0.366577 576.655C1.77704 550.29 7.34741 523.924 18.9795 500.524C24.5242 489.371 31.5565 479.132 41.5166 472.149C51.2153 465.347 62.5047 461.71 73.6613 458.809C75.7413 458.268 77.8272 457.765 79.9152 457.258C78.8296 449.448 75.3035 442.195 74.8578 434.244C74.3388 424.953 79.7884 417.182 84.1207 409.67C88.3738 402.302 92.4922 394.251 98.6569 388.498C104.261 383.268 111.301 381.041 118.427 379.45C126.414 377.666 134.831 376.445 141.661 371.271C141.847 371.128 142.026 371.092 142.196 371.09C152.683 363.031 163.17 354.972 173.657 346.913C179.071 342.753 184.525 338.63 189.582 333.974C194.447 329.495 198.783 324.451 202.84 319.13C205.483 315.663 208.066 312.147 210.631 308.609C210.629 308.473 210.622 308.339 210.62 308.205C210.372 308.249 210.114 308.228 209.922 308.09C202.953 303.046 202.741 293.043 202.985 284.912C203.348 272.846 204.16 260.796 205.42 248.803C207.923 224.994 212.087 201.307 218.155 178.246C221.309 166.266 225.269 154.404 231.548 143.873C232.277 142.647 234.111 143.762 233.38 144.991C227.919 154.15 224.235 164.31 221.317 174.688C218.27 185.526 215.818 196.579 213.67 207.659C209.229 230.575 206.454 253.858 205.382 277.236C205.126 282.776 204.691 288.451 205.289 293.983C205.742 298.164 206.984 302.502 209.999 305.296C210.202 304.791 210.384 304.277 210.58 303.77C210.606 288.903 212.515 274.046 216.354 259.76C217.321 256.168 218.214 251.48 221.679 249.709C222.363 249.361 223.278 249.788 223.252 250.695C222.745 269.068 219.116 287.204 212.67 304.209C212.67 304.718 212.701 305.228 212.705 305.735C217.715 298.777 222.65 291.754 227.646 284.799C231.671 279.199 235.795 273.658 239.454 267.768C241.257 264.862 243.242 261.795 244.341 258.482C245.518 254.932 244.751 251.697 243.818 248.209C242.816 244.456 241.813 240.704 240.811 236.951C240.134 236.107 239.466 235.255 238.84 234.36C233.289 226.443 229.66 216.611 229.969 206.592C230.045 204.137 230.371 201.704 230.906 199.317C231.16 198.19 232.659 198.256 232.943 199.317C236.193 211.476 239.442 223.633 242.691 235.792C247.164 241.245 252.667 245.654 258.689 249.095C277.458 259.816 299.108 261.239 319.32 267.067C329.351 269.961 338.986 274.153 347.849 280.002C352.104 282.81 356.165 285.96 359.992 289.406C363.598 292.651 366.918 296.254 370.634 299.359C374.309 302.428 378.585 305.096 383.336 305.37C388.811 305.686 393.92 302.965 398.749 300.542C403.195 298.311 407.731 295.958 411.425 292.421C413.84 290.107 415.688 287.33 417.16 284.311C416.229 281.834 416.037 279.137 415.865 276.492C415.593 272.271 415.472 268.039 415.5 263.809C415.554 255.594 416.176 247.386 417.331 239.267C418.648 230 420.68 220.848 423.416 211.947C425.08 206.539 427.582 195.243 434.856 196.551C435.205 196.613 435.537 196.994 435.607 197.359C437.978 209.729 434.806 222.704 432.403 234.799C429.894 247.439 426.932 259.978 423.519 272.371C422.398 276.443 421.203 280.562 419.474 284.4C419.698 284.841 419.949 285.259 420.272 285.611C421.689 287.158 423.418 286.476 425.066 285.726C428.553 284.136 432.019 282.484 435.494 280.865C442.657 277.526 449.82 274.187 456.983 270.848C460.436 269.239 463.892 267.632 467.345 266.019C470.099 264.73 472.88 263.415 475.37 261.591C480.204 258.047 482.581 252.677 483.068 246.515C484.039 234.194 479.249 220.53 485.522 209.145C486.214 207.89 488.044 209.008 487.353 210.263C481.141 221.544 486.4 235.515 485.059 247.736C484.397 253.77 481.984 259.104 477.404 262.795C474.732 264.949 471.682 266.443 468.635 267.871C464.891 269.626 461.139 271.365 457.391 273.113L434.006 284.012C432.11 284.897 430.215 285.781 428.317 286.665C426.675 287.43 424.925 288.513 423.133 288.798C421.166 289.114 419.508 288.17 418.351 286.635C418.168 286.981 418.022 287.343 417.828 287.68C415.195 292.263 411.459 295.73 407.174 298.449C402.828 301.211 398.1 303.576 393.397 305.541C388.674 307.512 383.662 308.394 378.738 306.751C369.449 303.651 362.93 294.573 355.466 288.379C346.771 281.165 336.938 275.533 326.536 271.762C305.503 264.139 282.728 263.366 262.324 253.519C255.607 250.28 249.256 246.024 243.963 240.544C244.244 241.605 244.529 242.666 244.812 243.727C245.682 246.979 246.877 250.329 247.102 253.728C247.316 256.986 246.189 260.039 244.753 262.846C241.655 268.898 237.713 274.438 233.806 279.9C226.822 289.661 219.817 299.408 212.789 309.134C212.82 310.233 212.816 311.335 212.868 312.432C220.829 310.293 227.404 304.714 234.432 300.405C238.303 298.032 242.406 296.105 246.677 294.724C250.149 293.604 254.547 292.225 257.088 295.965C259.327 299.261 259.184 304.237 258.727 308.079C258.198 312.509 256.756 316.788 254.693 320.653C250.516 328.485 243.878 334.423 236.829 339.128C234.787 340.492 232.723 341.624 230.251 341.3C230.173 341.289 230.098 341.262 230.021 341.249C229.575 343.333 227.911 344.854 226.194 345.939C223.779 347.467 221.323 348.735 219.132 350.648C214.736 354.495 211.261 359.607 209.33 365.349C208.862 366.747 208.609 369.13 207.67 370.611C220.053 382.861 236.362 388.954 250.498 398.394C258.764 403.915 266.44 410.382 274.059 416.873C281.674 423.361 289.207 429.972 296.412 436.989C300.009 440.492 303.524 444.097 306.917 447.831C309.764 450.963 312.838 454.43 313.399 458.965C313.91 463.082 312.192 466.849 308.557 468.445C304.793 470.101 300.362 470.088 296.416 469.353C287.684 467.723 280.204 462.072 273.693 455.898C266.656 449.224 260.208 441.967 252.073 436.78C243.881 431.555 235.05 427.54 226.691 422.626C223.486 420.743 220.322 418.776 217.184 416.766C218.741 417.938 220.279 419.14 221.845 420.299C230.389 426.626 239.044 432.78 247.695 438.936C256.348 445.09 265 451.251 273.536 457.59C281.555 463.546 289.909 469.438 296.693 477.031C302.268 483.266 308.329 492.565 304.047 501.428C299.7 510.422 289.271 507.285 282.629 503.635C273.253 498.485 264.428 492.207 255.521 486.187C246.453 480.061 237.325 474.026 228.389 467.678C220.102 461.79 212.25 455.338 204.35 448.875C197.199 443.023 189.812 437.332 181.589 433.338C195.077 443.842 208.498 454.445 221.82 465.194C229.47 471.367 237.095 477.581 244.692 483.835C248.519 486.986 252.342 490.149 256.157 493.322C259.899 496.435 263.75 499.454 267.381 502.717C268.695 503.899 270.01 505.37 270.452 507.207C270.896 509.048 270.224 510.755 269.16 512.18C267.076 514.97 264.115 516.885 260.963 517.934C254.099 520.214 246.702 518.528 240.451 515.097C232.836 510.921 226.362 504.618 219.294 499.51C215.608 496.846 211.931 494.174 208.625 490.971C205.247 487.692 202.149 484.09 198.455 481.207C191.244 475.582 182.896 471.714 175.157 467.028C171.934 465.078 168.758 463.043 165.581 461.006C166.12 461.477 166.67 461.935 167.203 462.411C170.616 465.458 173.934 468.62 177.167 471.885C180.408 475.16 183.615 478.486 187.338 481.129C194.162 485.976 202.06 488.936 208.341 494.681C211.077 497.183 213.53 500.204 215.089 503.703C216.38 506.601 217.862 511.111 216.119 514.113C214.423 517.03 210.762 517.439 207.882 517.727C203.585 518.155 199.197 518.49 194.944 517.49C190.751 516.506 187.264 513.957 183.804 511.347C179.966 508.451 176.125 505.553 172.286 502.657C164.535 496.808 156.653 491.114 149.076 485.007C142.535 479.733 136.665 473.325 129.52 468.972C122.137 464.473 113.393 463.661 105.446 460.738C102.819 459.77 100.23 458.656 97.7218 457.367C97.3158 457.978 96.3847 458.196 95.9647 457.335C95.7369 456.87 95.4537 456.442 95.21 455.99C94.9624 455.845 94.7068 455.715 94.4632 455.566C91.1728 453.586 87.32 451.161 85.1944 447.709C84.2357 446.15 83.8354 444.364 84.3208 442.546C84.4951 441.894 85.2776 441.423 85.858 441.849C90.2893 445.103 93.9501 449.35 96.7056 454.281C99.0134 455.592 101.402 456.742 103.847 457.725C107.528 459.206 111.309 460.378 115.122 461.381C119.005 462.402 122.927 463.263 126.63 464.923C133.543 468.026 139.183 473.519 144.886 478.591C151.625 484.583 158.921 489.818 166.072 495.214C173.239 500.622 180.313 506.224 187.607 511.428C191.192 513.985 194.895 515.566 199.217 515.826C201.303 515.95 203.395 515.852 205.477 515.683C207.286 515.536 209.142 515.443 210.915 514.997C212.228 514.667 213.799 514.092 214.447 512.698C215.231 511.01 214.544 508.581 214.029 506.883C212.953 503.354 210.818 500.294 208.353 497.739C202.731 491.917 195.303 488.906 188.679 484.694C181.613 480.204 176.076 473.662 169.945 467.889C163.711 462.023 157.158 456.551 150.326 451.515C148.598 450.241 146.851 448.999 145.09 447.78C144.827 447.594 144.688 447.345 144.632 447.081C143.89 446.216 144.831 444.617 145.886 445.329C153.535 450.486 161.185 455.643 168.964 460.574C176.599 465.409 184.481 469.7 192.215 474.335C195.755 476.453 199.188 478.784 202.298 481.578C205.645 484.587 208.579 488.082 211.941 491.071C215.342 494.097 219.104 496.601 222.733 499.288C226.067 501.758 229.254 504.447 232.527 507.008C238.67 511.816 245.435 516.333 253.237 516.674C256.512 516.817 259.882 516.291 262.837 514.714C264.309 513.93 265.652 512.907 266.797 511.639C268.312 509.962 269.087 508.195 267.617 506.15C266.401 504.458 264.586 503.207 263.033 501.905C261.201 500.371 259.365 498.836 257.526 497.302C253.921 494.295 250.308 491.299 246.689 488.31C239.25 482.168 231.782 476.063 224.29 470.001C209.566 458.085 194.74 446.314 179.812 434.696C177.93 433.232 176.042 431.768 174.156 430.306C173.257 429.611 173.713 427.822 174.945 428.224C192.565 434.027 206.105 448.172 220.823 459.389C229.274 465.833 238.069 471.725 246.839 477.651C255.642 483.598 264.382 489.678 273.302 495.418C277.502 498.125 281.777 500.918 286.283 502.998C290.006 504.718 294.784 506.22 298.646 504.14C302.418 502.107 303.841 497.277 303.226 493C302.523 488.105 299.607 483.875 296.62 480.274C290.243 472.59 282.151 466.775 274.34 460.936C266.022 454.72 257.59 448.69 249.149 442.678C232.269 430.664 215.324 418.712 199.195 405.545C197.66 404.29 196.151 403.145 195.447 401.136C195.14 400.256 196.27 399.312 196.987 399.864C204.572 405.711 212.402 411.183 220.461 416.242C228.488 421.277 236.776 425.697 245.078 430.163C249.226 432.394 253.333 434.749 257.158 437.579C260.761 440.243 264.071 443.324 267.288 446.499C273.754 452.877 280.008 459.717 287.971 463.932C291.822 465.971 296.049 467.397 300.366 467.533C304.037 467.646 309.736 467.203 311.071 462.724C312.406 458.251 309.558 454.126 306.871 451.044C303.698 447.407 300.332 443.944 296.925 440.56C290.029 433.707 282.801 427.257 275.47 420.956C268.087 414.612 260.674 408.26 252.782 402.655C238.773 392.706 222.513 386.639 209.385 375.228C208.167 374.169 207.02 373.023 205.877 371.87C204.693 372.019 203.68 371.167 202.757 370.481C201.22 369.334 199.695 368.177 198.177 367.003C194.978 364.525 191.805 361.993 188.71 359.364C186.097 357.145 183.58 354.676 182.243 351.319C181.989 350.684 182.163 349.834 182.89 349.664C188.015 348.47 192.785 353.425 196.287 356.792C200.014 360.367 203.296 364.431 206.164 368.819C206.224 368.625 206.273 368.42 206.323 368.237C206.666 366.935 206.988 365.641 207.43 364.371C209.116 359.553 211.747 355.144 215.126 351.496C216.788 349.702 218.634 348.095 220.609 346.717C222.578 345.346 224.962 344.471 226.729 342.798C227.458 342.11 227.83 341.402 227.967 340.688C226.495 340.143 225.072 339.363 223.725 338.608C220.334 336.714 216.875 334.11 216 329.855C215.839 329.068 216.499 328.201 217.287 328.472C220.243 329.488 223.014 330.98 225.492 332.996C227.337 334.496 229.466 336.416 230.013 338.952C232.105 339.348 233.81 338.472 235.603 337.283C241.958 333.068 248 327.83 252.047 320.986C254.091 317.527 255.605 313.711 256.357 309.688C257.031 306.093 257.451 301.254 255.743 297.902C253.715 293.923 248.43 296.438 245.401 297.537C241.594 298.92 237.982 300.783 234.52 302.969C227.434 307.444 220.706 312.984 212.517 314.885C212.048 314.994 211.685 314.783 211.461 314.459C211.115 314.308 210.831 313.986 210.802 313.474C210.776 312.974 210.772 312.471 210.75 311.97C209.936 313.093 209.134 314.229 208.318 315.352C204.189 321.035 199.932 326.646 195.095 331.658C190.42 336.497 185.236 340.72 179.988 344.805C167.039 354.882 153.981 364.804 140.974 374.798C140.684 375.02 140.401 375.041 140.158 374.943C128.741 381.8 114.328 379.972 103.189 387.643C96.4124 392.314 92.1752 400.103 87.9994 407.262C85.6302 411.326 83.2471 415.388 80.9908 419.524C78.8969 423.364 77.0943 427.412 76.9358 431.936C76.6466 440.232 80.4322 447.886 81.8446 455.945C85.0082 454.995 88.2728 454.873 91.4977 455.6C92.5001 455.824 92.4189 457.143 91.7513 457.68C88.6353 460.188 84.7903 461.119 80.9631 460.499C80.5134 460.427 80.2578 459.943 80.1964 459.5C69.7074 462.044 59.1311 464.808 49.4443 469.928C44.2424 472.677 39.3515 476.102 35.134 480.395C30.7126 484.894 27.0677 490.179 23.918 495.764C11.1568 518.375 4.83563 544.841 2.83685 571.034C0.711304 598.883 3.46875 626.824 8.34778 654.185C13.4645 682.869 20.8356 710.999 27.3807 739.325C33.8821 767.461 39.6031 795.961 41.4394 824.945C41.6712 828.595 41.8356 832.25 41.9406 835.907C41.9842 837.366 39.8765 837.362 39.8368 835.907C38.9771 806.07 33.6266 776.683 27.131 747.74C20.6534 718.883 13.0327 690.316 7.50195 661.219C2.22076 633.44 -1.15479 605.05 0.366577 576.655Z" fill="url(#paint1_linear_2_527)"/>
<defs>
<linearGradient id="paint0_linear_2_527" x1="277" y1="0" x2="277" y2="837" gradientUnits="userSpaceOnUse">
<stop stop-color="#F0A56D"/>
<stop offset="1" stop-color="#FFD1AF" stop-opacity="0"/>
</linearGradient>
<linearGradient id="paint1_linear_2_527" x1="277" y1="0" x2="277" y2="837" gradientUnits="userSpaceOnUse">
<stop stop-color="#F0A56D"/>
<stop offset="1" stop-color="#FFD1AF" stop-opacity="0"/>
</linearGradient>
</defs>
</svg>
