<svg width="379" height="897" viewBox="0 0 379 897" fill="none" xmlns="http://www.w3.org/2000/svg">
<path d="M133.321 575.497C127.125 575.33 121.417 573.615 116.247 570.209C111.916 567.36 108.203 563.669 104.632 559.941C98.1029 553.121 91.7171 545.704 83.4108 541.176C83.6672 541.083 83.9254 541.004 84.1819 540.913C103.418 542.931 124.394 546.185 137.642 561.608C140.946 565.456 143.614 569.974 145.167 574.816C141.229 575.237 137.286 575.605 133.321 575.497ZM82.9086 534.781C85.3134 531.898 87.7307 529.022 90.1534 526.153C95.0328 520.642 100.23 515.425 105.984 510.818C111.194 506.649 116.885 503.063 122.966 500.305C129.689 497.261 136.812 495.166 143.431 491.877C147.982 489.617 152.238 486.752 155.683 483.069C158.098 483.946 160.582 484.543 163.315 484.206C169.896 483.391 175.118 478.384 181.914 478.453C196.359 478.596 205.935 493.368 212.477 504.324C219.381 515.884 225.976 528.428 237.023 536.438C236.272 536.377 235.531 536.275 234.787 536.185C227.309 533.643 219.702 531.503 212.007 529.757C202.268 525.787 192.762 520.918 182.994 517.485C172.557 513.816 161.799 512.117 150.757 513.409C138.683 514.821 127.213 518.986 116.025 523.566C104.729 528.189 93.5426 533.223 81.7197 536.293C82.1178 535.791 82.507 535.281 82.9086 534.781ZM125.247 487.878C130.486 483.061 137.201 478.514 144.683 479.353C147.303 479.647 149.722 480.625 152.121 481.633C144.014 489.622 131.741 492.467 121.575 497.013C117.515 498.829 113.67 501.037 109.996 503.499C114.911 498.147 119.898 492.792 125.247 487.878ZM111.187 529.39C122.73 524.589 134.276 519.806 146.655 517.616C158.035 515.599 169.148 516.667 180.082 520.273C185.653 522.11 191.044 524.409 196.402 526.787C169.001 522.54 140.847 523.195 113.661 528.825C112.833 528.997 112.013 529.208 111.187 529.39ZM212.298 562.223C207.696 566.804 202.673 571.089 196.807 573.96C190.206 577.187 183.403 577.438 176.262 576.174C169.093 574.905 162.258 573.468 154.926 573.893C152.874 574.012 150.825 574.213 148.777 574.428C147.825 571.21 146.438 568.104 144.679 565.223C134.212 548.09 114.762 541.497 95.8739 538.744C94.6115 538.561 93.3436 538.417 92.0776 538.256C128.244 526.79 167.19 524.503 204.459 531.774C206.733 532.217 208.991 532.727 211.247 533.24C218.572 536.2 226.107 538.65 233.904 539.676C234.589 539.91 235.275 540.139 235.958 540.38C226.803 546.034 219.896 554.662 212.298 562.223ZM141.812 438.543C142.698 436.873 149.636 428.777 151.051 432.881C151.596 434.464 150.828 436.715 150.357 438.226C149.727 440.258 148.771 442.174 147.591 443.941C145.891 446.487 143.653 448.615 141.102 450.274C139.739 446.46 139.889 442.165 141.812 438.543ZM40.5411 364.476C40.6452 364.168 40.6434 363.882 40.5842 363.622C45.3184 364.32 50.1082 364.937 54.9231 365.411C50.006 366.053 45.0512 366.127 40.1126 365.743C40.256 365.321 40.3995 364.9 40.5411 364.476ZM81.37 366.057C73.607 368.364 65.376 368.974 57.3475 367.748C57.3619 367.691 57.3744 367.632 57.3888 367.574C57.6165 366.622 57.1413 365.895 56.4133 365.563C64.7268 366.328 73.0995 366.606 81.37 366.057ZM107.83 354.227C109.573 352.618 111.323 350.994 113.234 349.584C114.194 348.877 115.207 348.124 116.292 347.618C118.092 346.773 119.753 347.189 118.541 349.401C116.285 353.526 110.579 355.991 106.399 357.48C105.141 357.926 103.87 358.334 102.591 358.716C104.376 357.3 106.121 355.806 107.83 354.227ZM173.093 410.496C173.884 407.697 174.809 404.922 175.982 402.26C176.994 399.961 178.267 397.278 180.634 396.103C185.847 393.517 192.747 399.389 196.316 402.669C205.114 410.752 210.12 422.157 211.448 433.929C212.118 439.86 212.889 448.295 207.009 451.941C201.875 455.125 195.907 453.213 191.505 449.756C193.155 445.856 193.599 441.485 192.281 437.374C191.182 433.94 189.05 430.886 186.082 428.818C183.5 427.017 179.312 425.585 177.137 428.771C174.949 431.975 177.221 436.634 178.67 439.666C180.663 443.836 183.501 447.563 186.898 450.687C186.923 450.71 186.95 450.712 186.975 450.733C186.909 450.841 186.853 450.954 186.785 451.06C182.221 458.184 173.384 460.778 165.323 460.495C169.078 444.176 168.531 426.687 173.093 410.496ZM188.564 447.282C186.044 444.806 183.905 442.022 182.269 438.864C181.378 437.144 180.523 435.291 180.076 433.396C179.922 432.745 179.533 431.333 180.094 430.757C180.969 429.864 182.72 430.937 183.51 431.412C189.121 434.79 190.431 441.514 188.564 447.282ZM364.87 412.606C362.381 408.878 359.472 405.458 356.172 402.426C354.478 400.869 351.933 403.399 353.637 404.963C367.524 417.722 373.022 437.026 372.722 455.446C372.356 477.88 364.262 499.335 357.074 520.294C349.345 542.836 341.616 565.379 333.888 587.921C330.072 599.051 326.255 610.182 322.439 621.314C319.129 630.968 316.124 640.833 311.895 650.14C308.02 658.669 302.884 666.891 295.246 672.531C287.808 678.026 278.673 680.71 269.529 681.359C249.21 682.805 230.235 675.147 211.471 668.475C201.179 664.813 190.743 661.468 179.89 659.964C169.336 658.502 158.08 658.543 148.165 654.198C140.16 650.689 132.627 644.146 131.631 634.972C130.755 626.906 134.969 619.423 138.912 612.725C143.133 605.556 147.927 598.324 149.609 590.039C150.428 585.999 150.357 581.904 149.611 577.926C149.743 577.912 149.876 577.898 150.009 577.885C153.674 577.519 157.365 577.243 161.05 577.408C164.918 577.58 168.7 578.368 172.487 579.105C179.293 580.431 186.107 581.333 192.878 579.326C199.076 577.49 204.552 573.879 209.45 569.737C220.683 560.23 228.944 546.949 242.767 540.796C243.794 540.338 243.886 539.368 243.479 538.596C243.482 538.562 243.498 538.528 243.5 538.494C244.002 537.707 243.992 536.591 242.941 536.001C230.148 528.812 223.222 515.395 215.999 503.226C209.202 491.782 200.448 478.408 186.46 475.394C183.453 474.744 180.342 474.685 177.329 475.349C174.004 476.081 171.01 477.789 167.914 479.133C164.642 480.552 161.512 481.108 158.073 480.173C158.448 479.664 158.824 479.152 159.169 478.616C159.5 478.092 159.513 477.582 159.337 477.154C161.557 472.916 163.207 468.526 164.444 464.022C172.008 464.427 179.705 462.725 185.623 457.743C187.239 456.381 188.648 454.752 189.803 452.954C193.624 455.837 198.235 457.644 203.114 457.002C209.109 456.212 213.603 452.007 214.873 446.107C216.232 439.795 215.224 432.65 213.773 426.439C212.253 419.941 209.608 413.643 205.793 408.157C202.227 403.026 197.742 398.564 192.452 395.22C187.574 392.138 181.152 390.145 176.504 394.741C174.435 396.786 173.226 399.531 172.154 402.182C170.871 405.343 169.839 408.596 169.008 411.904C167.308 418.691 166.431 425.653 165.682 432.598C164.692 441.783 163.901 451.209 161.733 460.224C155.218 459.463 148.488 457.235 143.562 452.935C143.985 452.648 144.407 452.357 144.805 452.05C148.689 449.061 151.673 445.021 153.385 440.429C154.678 436.959 156.294 430.379 151.698 428.527C146.84 426.568 141.182 432.472 139.016 436.19C136.176 441.06 136 446.837 137.965 452.005C130.95 455.22 119.948 455.9 114.578 449.352C108.975 442.524 112.266 432.901 116.335 426.278C121.881 417.252 129.467 407.798 136.792 400.184C153.61 380.642 165.927 356.165 166.591 330.017C167.197 306.047 157.436 281.156 138.035 266.441C116.859 250.383 87.9728 248.912 62.8636 254.502C37.2003 260.216 12.3637 275.051 3.10511 300.874C-1.08214 312.556 -1.22739 325.525 3.85291 336.944C8.46517 347.315 17.1069 356.028 27.8252 359.957C29.1755 360.454 30.5455 360.843 31.9353 361.155C31.9927 361.791 32.3926 362.356 33.2408 362.494C33.7626 362.576 34.2898 362.657 34.8135 362.741C26.2543 363.674 17.5946 363.385 9.10534 361.891C6.84943 361.493 5.91515 364.961 8.19617 365.362C17.487 366.999 26.8604 367.248 36.1997 366.152C36.1172 366.396 36.0347 366.642 35.9522 366.886C35.5487 368.084 36.6283 369.019 37.6863 369.135C42.9387 369.711 48.1697 369.67 53.4024 369.142C53.3791 369.951 53.8489 370.816 54.6953 370.974C64.1619 372.739 73.9549 372.196 83.1508 369.313C87.0726 368.082 90.6932 366.437 94.1165 364.48C98.5799 363.638 102.988 362.488 107.31 360.949C112.219 359.202 117.203 356.74 120.594 352.652C121.919 351.053 123.074 348.895 122.567 346.751C122.102 344.782 120.296 343.508 118.315 343.479C113.364 343.409 108.637 348.603 105.294 351.69C101.539 355.156 97.6887 358.332 93.3077 360.911C86.5938 362.131 79.7364 362.646 72.9543 362.682C61.0668 362.747 49.242 361.362 37.5105 359.548C37.2846 358.909 36.7645 358.36 35.9343 358.256C25.0133 356.891 15.5521 349.753 9.82444 340.55C3.60363 330.546 2.15468 318.616 4.93423 307.237C11.1317 281.868 33.9778 266.03 57.9608 259.418C81.3664 252.966 108.608 252.71 130.053 265.386C150.28 277.342 161.6 300.256 162.9 323.277C164.319 348.411 153.857 372.947 138.57 392.448C136.649 394.897 134.644 397.274 132.575 399.597C128.755 403.666 124.677 408.869 121.243 413.273C117.64 417.894 113.955 422.647 111.31 427.899C106.913 436.625 106.169 448.909 115.46 454.836C122.665 459.433 132.634 458.641 140.305 454.831C145.787 460.1 153.403 462.642 160.829 463.663C159.386 468.702 157.444 473.585 154.687 478.183C154.542 478.424 154.492 478.654 154.47 478.88C152.333 477.984 150.231 476.994 147.991 476.373C133.001 472.211 120.936 486.692 111.857 496.26C103.456 505.11 95.4632 514.331 87.5908 523.652C85.0892 526.476 82.6701 529.375 80.312 532.319C78.8469 534.077 77.3782 535.83 75.9149 537.59C75.5904 537.981 75.4792 538.408 75.4971 538.817C75.463 539.113 75.5258 539.413 75.6334 539.698C75.3465 540.586 75.6334 541.704 76.7721 542.082C86.9722 545.466 94.1183 554.07 101.275 561.615C108.821 569.573 117.192 577.124 128.477 578.685C134.348 579.496 140.221 578.922 146.078 578.296C146.646 581.134 146.813 584.051 146.483 586.984C145.492 595.8 140.18 603.503 135.792 610.954C131.768 617.791 127.681 625.311 127.948 633.494C128.233 642.229 133.491 649.408 140.567 654.141C149.139 659.874 159.493 661.285 169.519 662.361C175.134 662.964 180.736 663.541 186.27 664.7C191.603 665.816 196.849 667.33 202.028 669.017C221.924 675.502 241.298 684.625 262.584 685.109C271.54 685.312 280.599 683.997 288.834 680.362C297.398 676.584 304.277 670.159 309.363 662.365C314.522 654.453 317.876 645.503 320.964 636.626C324.835 625.503 328.612 614.345 332.431 603.204C340.304 580.237 348.178 557.272 356.052 534.309C363.521 512.522 372.423 490.56 375.383 467.581C377.797 448.848 375.565 428.637 364.87 412.606Z" fill="url(#paint0_linear_4_600)"/>
<path d="M347.315 313.878C348.158 310.111 349.952 305.429 353.915 304.011C358.45 302.415 362.092 305.518 363.204 309.716C365.427 318.058 361.034 326.311 356.407 332.895C354.488 335.657 352.372 338.277 350.131 340.752C347.746 332.177 345.325 322.561 347.315 313.878ZM389.547 429.968C381.047 410.718 370.664 392.384 362.002 373.206C357.842 363.967 354.13 354.512 351.296 344.771C351.296 344.771 351.296 344.753 351.314 344.753C357.16 338.6 363.258 331.101 365.876 322.902C367.705 317.089 368.386 309.268 364.495 304.101C361.034 299.508 354.327 298.755 349.808 302.235C344.48 306.326 342.94 314.363 343.012 320.695C343.083 328.374 344.966 336.303 347.208 343.838C336.466 354.566 322.82 362.406 308.167 366.209C288.676 371.25 267.767 368.559 249.87 359.446C231.471 350.081 217.896 334.509 209.665 315.69C201.488 297.015 198.35 276.509 195.749 256.416C192.898 234.314 190.011 212.266 185.743 190.361C176.92 145.188 164.062 100.536 146.775 57.8745C138.67 37.9072 128.179 16.6663 113.349 0H108.22C121.76 14.352 131.909 32.7225 139.656 50.214C159.005 93.8441 172.186 140.955 181.547 187.67C186.225 211.01 189.312 234.53 192.396 258.121C195.086 278.788 198.475 299.759 207.172 318.866C223.473 354.763 261.58 377.511 301.139 371.322C318.785 368.559 335.48 360.038 348.374 347.695C348.642 348.502 348.892 349.346 349.145 350.153C352.372 360.199 356.497 369.941 360.962 379.485C370.61 400.134 381.997 419.993 390.425 441.216C399.284 463.552 404.431 487.232 406.493 511.164C410.635 558.975 403.086 607 390.999 653.177C378.267 701.831 360.729 749.049 346.473 797.235C337.201 828.595 326.496 863.686 329.758 897H333.579C331.517 873.355 336.395 848.114 342.187 825.939C354.184 779.977 370.483 735.307 384.292 689.883C409.793 605.923 426.416 513.281 389.547 429.968Z" fill="url(#paint1_linear_4_600)"/>
<defs>
<linearGradient id="paint0_linear_4_600" x1="205.5" y1="0" x2="205.5" y2="897" gradientUnits="userSpaceOnUse">
<stop stop-color="#F0A56D"/>
<stop offset="1" stop-color="#FFD1AF" stop-opacity="0"/>
</linearGradient>
<linearGradient id="paint1_linear_4_600" x1="205.5" y1="0" x2="205.5" y2="897" gradientUnits="userSpaceOnUse">
<stop stop-color="#F0A56D"/>
<stop offset="1" stop-color="#FFD1AF" stop-opacity="0"/>
</linearGradient>
</defs>
</svg>
